%FSLAX23Y23*%
%MOIN*%
G04 EasyPC Gerber Version 18.0.1 Build 3581 *
%ADD15R,0.06000X0.06000*%
%ADD17R,0.06000X0.06000*%
%ADD20C,0.01500*%
%ADD71C,0.04800*%
%ADD70C,0.05000*%
%ADD19C,0.05600*%
%ADD18C,0.06000*%
%ADD16C,0.06000*%
%ADD14C,0.15748*%
X0Y0D02*
D02*
D14*
X121Y121D03*
Y1380D03*
X1380Y121D03*
Y1380D03*
D02*
D15*
X105Y1026D03*
Y1126D03*
X205Y476D03*
Y576D03*
Y676D03*
Y776D03*
Y1026D03*
Y1126D03*
X305Y476D03*
Y576D03*
Y676D03*
Y776D03*
Y1026D03*
Y1126D03*
X405Y476D03*
Y576D03*
Y676D03*
Y776D03*
Y1026D03*
Y1126D03*
X705Y1276D03*
Y1376D03*
X805Y1076D03*
Y1176D03*
Y1276D03*
Y1376D03*
X905Y1076D03*
Y1176D03*
Y1276D03*
Y1376D03*
X1005Y1076D03*
Y1176D03*
Y1276D03*
Y1376D03*
X1105Y526D03*
Y626D03*
Y726D03*
Y826D03*
Y1076D03*
Y1176D03*
Y1276D03*
Y1376D03*
X1205Y526D03*
Y626D03*
Y726D03*
Y826D03*
X1305Y526D03*
Y626D03*
Y726D03*
Y826D03*
X1405Y726D03*
Y826D03*
D02*
D16*
X655Y476D03*
Y876D03*
X805Y476D03*
Y876D03*
D02*
D17*
X555Y270D03*
D02*
D18*
Y170D03*
X655D03*
Y270D03*
X755Y170D03*
Y270D03*
X855Y170D03*
Y270D03*
X955Y170D03*
Y270D03*
D02*
D19*
X305Y176D03*
Y876D03*
X405Y276D03*
X1005Y626D03*
Y1001D03*
X1180D03*
Y1176D03*
D02*
D70*
X305Y176D02*
Y476D01*
Y576D02*
Y676D01*
Y576D02*
Y476D01*
Y676D02*
Y776D01*
Y876D02*
Y776D01*
Y876D02*
Y1026D01*
Y1126*
X405Y276D02*
Y476D01*
Y576D02*
Y676D01*
Y576D02*
Y476D01*
Y676D02*
Y776D01*
Y1026D02*
Y776D01*
Y1026D02*
Y1126D01*
X805Y1076D02*
Y876D01*
X1005Y626D02*
Y1001D01*
X1180D02*
Y1176D01*
D02*
D71*
X155Y326D03*
X205Y1251D03*
X230Y226D03*
X480Y376D03*
X605Y1251D03*
X655Y376D03*
X705Y326D03*
X755Y626D03*
X905Y976D03*
X1155Y276D03*
Y351D03*
D02*
D20*
X155Y326D02*
Y1126D01*
X105*
X205Y1251D02*
Y1126D01*
X230Y226D02*
X205D01*
Y476*
X480Y376D02*
Y1176D01*
X255*
Y776*
X205*
X605Y1251D02*
Y170D01*
X655*
Y376D02*
Y270D01*
Y476D02*
X705D01*
Y1276*
Y326D02*
Y270D01*
X755*
Y626D02*
Y326D01*
X805*
Y170*
X755*
X805Y1376D02*
X755D01*
Y826*
X805*
Y476*
X905Y976D02*
Y270D01*
X855*
X1155Y351D02*
Y276D01*
X0Y0D02*
M02*
