%FSLAX23Y23*%
%MOIN*%
G04 EasyPC Gerber Version 18.0.1 Build 3581 *
%ADD10C,0.00100*%
%ADD12C,0.00500*%
%ADD13C,0.00600*%
%ADD11C,0.01000*%
X0Y0D02*
D02*
D10*
X88Y848D02*
Y864D01*
X84Y865*
Y864*
Y861*
X83Y860*
X80Y859*
X78Y860*
X77Y861*
Y864*
Y873*
Y875*
X78Y877*
X80Y878*
X83Y877*
X84Y875*
Y873*
X109Y864*
Y868*
Y871*
X110Y872*
X112Y873*
X115Y872*
X116Y871*
Y868*
Y852*
X84Y838*
Y836*
X83Y835*
X82Y834*
X80*
X78Y834*
X77Y836*
Y838*
Y848*
Y850*
X78Y852*
X80Y853*
X83Y852*
X84Y850*
Y848*
Y846*
X88Y848*
X95Y851D02*
X107Y856D01*
X95Y861*
Y851*
X94Y764D02*
X91Y769D01*
X90Y774*
X91Y778*
X94Y783*
X100Y786*
X105Y787*
X110Y786*
X115Y784*
X119Y779*
X120Y773*
X119Y768*
X117Y764*
X114Y761*
X108Y759*
X103Y758*
X97Y757*
X93Y758*
X88Y760*
X84Y762*
X81Y765*
X77Y772*
X76Y779*
X77Y783*
X78Y786*
X79Y786*
X81Y787*
X84Y786*
X85Y784*
X84Y782*
X83Y779*
X84Y775*
X86Y770*
X90Y766*
X94Y764*
X105Y765D02*
X108Y767D01*
X112Y768*
X112Y771*
X113Y773*
X112Y776*
X111Y778*
X108Y779*
X105Y780*
X102Y779*
X100Y778*
X98Y776*
X97Y774*
X98Y771*
X99Y769*
X101Y767*
X105Y765*
X120Y688D02*
X84D01*
Y681*
Y678*
X83Y677*
X80Y676*
X78Y677*
X77Y678*
Y681*
Y702*
Y704*
X78Y706*
X80Y707*
X83Y706*
X84Y704*
Y702*
Y695*
X112*
X109Y701*
Y704*
X110Y706*
X113Y707*
X115Y706*
X115Y705*
X116Y703*
X120Y688*
X102Y636D02*
X94D01*
X88Y637*
X82Y640*
X78Y645*
X76Y651*
Y655*
X78Y658*
X80Y660*
X84Y664*
X90Y665*
X94Y666*
X102*
X108Y665*
X114Y662*
X119Y657*
X120Y651*
X119Y647*
X119Y644*
X115Y641*
X112Y638*
X107Y637*
X102Y636*
X101Y643D02*
X107Y644D01*
X111Y646*
X112Y648*
X113Y651*
X112Y653*
X111Y656*
X107Y658*
X101Y659*
X94*
X90Y658*
X86Y656*
X84Y653*
X83Y651*
X84Y648*
X86Y646*
X90Y644*
X94Y643*
X101*
X120Y565D02*
X84D01*
Y558*
Y556*
X83Y554*
X80Y553*
X78Y554*
X77Y556*
Y558*
Y579*
Y582*
X78Y583*
X80Y584*
X83Y583*
X84Y582*
Y579*
Y572*
X112*
X109Y578*
Y581*
X110Y583*
X113Y584*
X115Y583*
X115Y582*
X116Y580*
X120Y565*
Y524D02*
X84D01*
Y517*
Y515*
X83Y513*
X80Y512*
X78Y513*
X77Y515*
Y517*
Y538*
Y541*
X78Y542*
X80Y543*
X83Y542*
X84Y541*
Y538*
Y531*
X112*
X109Y538*
Y540*
X110Y542*
X113Y543*
X115Y542*
X115Y541*
X116Y539*
X120Y524*
Y442D02*
X84D01*
Y435*
Y433*
X83Y431*
X80Y430*
X78Y431*
X77Y433*
Y435*
Y456*
Y459*
X78Y460*
X80Y461*
X83Y460*
X84Y459*
Y456*
Y449*
X112*
X109Y456*
Y458*
X110Y460*
X113Y461*
X115Y460*
X115Y460*
X116Y457*
X120Y442*
X84Y412D02*
Y397D01*
X85Y394*
X84Y392*
X80Y391*
X77*
Y422*
X85*
X91Y414*
X97Y408*
X101Y403*
X103Y400*
X105Y399*
X107Y398*
X109Y399*
X112Y401*
X112Y403*
X113Y405*
X112Y408*
X111Y412*
X108Y413*
X106Y415*
X105Y416*
X106Y419*
X108Y420*
X111Y419*
X113Y419*
X116Y416*
X119Y413*
X119Y409*
X120Y405*
X119Y400*
X116Y395*
X112Y392*
X107Y391*
X102Y392*
X99Y394*
X95Y398*
X93Y400*
X91Y403*
X88Y407*
X84Y412*
X77Y392D02*
X83D01*
X103D02*
X111D01*
X77Y393D02*
X84D01*
X101D02*
X113D01*
X77Y394D02*
X85D01*
X100D02*
X114D01*
X77Y395D02*
X85D01*
X99D02*
X116D01*
X77Y395D02*
X84D01*
X98D02*
X117D01*
X77Y396D02*
X84D01*
X97D02*
X117D01*
X77Y397D02*
X84D01*
X96D02*
X118D01*
X77Y398D02*
X84D01*
X95D02*
X107D01*
X107D02*
X118D01*
X77Y399D02*
X84D01*
X94D02*
X105D01*
X110D02*
X119D01*
X77Y400D02*
X84D01*
X93D02*
X103D01*
X111D02*
X119D01*
X77Y401D02*
X84D01*
X92D02*
X102D01*
X112D02*
X120D01*
X77Y402D02*
X84D01*
X92D02*
X101D01*
X112D02*
X120D01*
X77Y403D02*
X84D01*
X91D02*
X101D01*
X112D02*
X120D01*
X77Y404D02*
X84D01*
X90D02*
X100D01*
X113D02*
X120D01*
X77Y405D02*
X84D01*
X90D02*
X99D01*
X113D02*
X120D01*
X77Y406D02*
X84D01*
X89D02*
X98D01*
X113D02*
X120D01*
X77Y407D02*
X84D01*
X88D02*
X97D01*
X113D02*
X120D01*
X77Y408D02*
X84D01*
X87D02*
X97D01*
X113D02*
X120D01*
X77Y409D02*
X84D01*
X86D02*
X96D01*
X112D02*
X120D01*
X77Y409D02*
X84D01*
X86D02*
X95D01*
X112D02*
X119D01*
X77Y410D02*
X84D01*
X85D02*
X94D01*
X111D02*
X119D01*
X77Y411D02*
X84D01*
X84D02*
X93D01*
X111D02*
X119D01*
X77Y412D02*
X92D01*
X109D02*
X119D01*
X77Y413D02*
X92D01*
X108D02*
X119D01*
X77Y414D02*
X91D01*
X107D02*
X118D01*
X77Y415D02*
X90D01*
X106D02*
X117D01*
X77Y416D02*
X89D01*
X105D02*
X116D01*
X77Y417D02*
X89D01*
X105D02*
X115D01*
X77Y418D02*
X88D01*
X106D02*
X114D01*
X77Y419D02*
X87D01*
X106D02*
X112D01*
X77Y420D02*
X86D01*
X107D02*
X110D01*
X77Y421D02*
X86D01*
X77Y422D02*
X85D01*
X78Y431D02*
X82D01*
X77Y432D02*
X84D01*
X77Y433D02*
X84D01*
X77Y434D02*
X84D01*
X77Y435D02*
X84D01*
X77Y436D02*
X84D01*
X77Y437D02*
X84D01*
X77Y438D02*
X84D01*
X77Y439D02*
X84D01*
X77Y439D02*
X84D01*
X77Y440D02*
X84D01*
X77Y441D02*
X84D01*
X77Y442D02*
X120D01*
X77Y443D02*
X120D01*
X77Y444D02*
X120D01*
X77Y445D02*
X119D01*
X77Y446D02*
X119D01*
X77Y447D02*
X119D01*
X77Y448D02*
X119D01*
X77Y449D02*
X118D01*
X77Y450D02*
X84D01*
X111D02*
X118D01*
X77Y451D02*
X84D01*
X111D02*
X118D01*
X77Y452D02*
X84D01*
X111D02*
X118D01*
X77Y453D02*
X84D01*
X110D02*
X117D01*
X77Y454D02*
X84D01*
X110D02*
X117D01*
X77Y454D02*
X84D01*
X110D02*
X117D01*
X77Y455D02*
X84D01*
X109D02*
X117D01*
X77Y456D02*
X84D01*
X109D02*
X117D01*
X77Y457D02*
X84D01*
X109D02*
X116D01*
X77Y458D02*
X84D01*
X109D02*
X116D01*
X77Y459D02*
X84D01*
X110D02*
X116D01*
X78Y460D02*
X83D01*
X110D02*
X115D01*
X80Y461D02*
X81D01*
X113D02*
X113D01*
X79Y513D02*
X81D01*
X78Y514D02*
X83D01*
X77Y514D02*
X84D01*
X77Y515D02*
X84D01*
X77Y516D02*
X84D01*
X77Y517D02*
X84D01*
X77Y518D02*
X84D01*
X77Y519D02*
X84D01*
X77Y520D02*
X84D01*
X77Y521D02*
X84D01*
X77Y522D02*
X84D01*
X77Y523D02*
X84D01*
X77Y524D02*
X84D01*
X77Y525D02*
X120D01*
X77Y526D02*
X120D01*
X77Y527D02*
X120D01*
X77Y528D02*
X119D01*
X77Y528D02*
X119D01*
X77Y529D02*
X119D01*
X77Y530D02*
X119D01*
X77Y531D02*
X84D01*
X112D02*
X118D01*
X77Y532D02*
X84D01*
X111D02*
X118D01*
X77Y533D02*
X84D01*
X111D02*
X118D01*
X77Y534D02*
X84D01*
X110D02*
X118D01*
X77Y535D02*
X84D01*
X110D02*
X117D01*
X77Y536D02*
X84D01*
X110D02*
X117D01*
X77Y537D02*
X84D01*
X109D02*
X117D01*
X77Y538D02*
X84D01*
X109D02*
X117D01*
X77Y539D02*
X84D01*
X109D02*
X116D01*
X77Y540D02*
X84D01*
X109D02*
X116D01*
X77Y541D02*
X84D01*
X109D02*
X116D01*
X77Y542D02*
X84D01*
X110D02*
X115D01*
X79Y543D02*
X82D01*
X111D02*
X114D01*
X79Y554D02*
X82D01*
X77Y555D02*
X84D01*
X77Y556D02*
X84D01*
X77Y557D02*
X84D01*
X77Y558D02*
X84D01*
X77Y558D02*
X84D01*
X77Y559D02*
X84D01*
X77Y560D02*
X84D01*
X77Y561D02*
X84D01*
X77Y562D02*
X84D01*
X77Y563D02*
X84D01*
X77Y564D02*
X84D01*
X77Y565D02*
X84D01*
X77Y566D02*
X120D01*
X77Y567D02*
X120D01*
X77Y568D02*
X119D01*
X77Y569D02*
X119D01*
X77Y570D02*
X119D01*
X77Y571D02*
X119D01*
X77Y572D02*
X119D01*
X77Y573D02*
X84D01*
X111D02*
X118D01*
X77Y573D02*
X84D01*
X111D02*
X118D01*
X77Y574D02*
X84D01*
X111D02*
X118D01*
X77Y575D02*
X84D01*
X110D02*
X118D01*
X77Y576D02*
X84D01*
X110D02*
X117D01*
X77Y577D02*
X84D01*
X110D02*
X117D01*
X77Y578D02*
X84D01*
X109D02*
X117D01*
X77Y579D02*
X84D01*
X109D02*
X117D01*
X77Y580D02*
X84D01*
X109D02*
X116D01*
X77Y581D02*
X84D01*
X109D02*
X116D01*
X77Y582D02*
X84D01*
X110D02*
X116D01*
X78Y583D02*
X83D01*
X110D02*
X115D01*
X79Y584D02*
X81D01*
X112D02*
X114D01*
X92Y636D02*
X104D01*
X87Y637D02*
X108D01*
X85Y638D02*
X111D01*
X83Y639D02*
X112D01*
X82Y640D02*
X114D01*
X81Y641D02*
X115D01*
X80Y642D02*
X116D01*
X79Y643D02*
X117D01*
X78Y644D02*
X90D01*
X106D02*
X119D01*
X78Y645D02*
X88D01*
X108D02*
X119D01*
X77Y646D02*
X87D01*
X110D02*
X119D01*
X77Y647D02*
X85D01*
X111D02*
X119D01*
X77Y647D02*
X84D01*
X112D02*
X120D01*
X77Y648D02*
X84D01*
X113D02*
X120D01*
X77Y649D02*
X84D01*
X113D02*
X120D01*
X76Y650D02*
X83D01*
X113D02*
X120D01*
X76Y651D02*
X83D01*
X113D02*
X120D01*
X76Y652D02*
X84D01*
X113D02*
X120D01*
X76Y653D02*
X84D01*
X112D02*
X120D01*
X76Y654D02*
X85D01*
X112D02*
X119D01*
X76Y655D02*
X85D01*
X111D02*
X119D01*
X77Y656D02*
X86D01*
X110D02*
X119D01*
X77Y657D02*
X88D01*
X109D02*
X119D01*
X78Y658D02*
X89D01*
X107D02*
X118D01*
X78Y659D02*
X94D01*
X102D02*
X117D01*
X79Y660D02*
X116D01*
X80Y661D02*
X115D01*
X82Y662D02*
X114D01*
X83Y662D02*
X113D01*
X84Y663D02*
X111D01*
X87Y664D02*
X110D01*
X91Y665D02*
X107D01*
X79Y677D02*
X82D01*
X77Y677D02*
X83D01*
X77Y678D02*
X84D01*
X77Y679D02*
X84D01*
X77Y680D02*
X84D01*
X77Y681D02*
X84D01*
X77Y682D02*
X84D01*
X77Y683D02*
X84D01*
X77Y684D02*
X84D01*
X77Y685D02*
X84D01*
X77Y686D02*
X84D01*
X77Y687D02*
X84D01*
X77Y688D02*
X84D01*
X77Y689D02*
X120D01*
X77Y690D02*
X120D01*
X77Y691D02*
X120D01*
X77Y692D02*
X119D01*
X77Y692D02*
X119D01*
X77Y693D02*
X119D01*
X77Y694D02*
X119D01*
X77Y695D02*
X84D01*
X111D02*
X118D01*
X77Y696D02*
X84D01*
X111D02*
X118D01*
X77Y697D02*
X84D01*
X111D02*
X118D01*
X77Y698D02*
X84D01*
X110D02*
X118D01*
X77Y699D02*
X84D01*
X110D02*
X117D01*
X77Y700D02*
X84D01*
X110D02*
X117D01*
X77Y701D02*
X84D01*
X109D02*
X117D01*
X77Y702D02*
X84D01*
X109D02*
X117D01*
X77Y703D02*
X84D01*
X109D02*
X116D01*
X77Y704D02*
X84D01*
X109D02*
X116D01*
X77Y705D02*
X84D01*
X110D02*
X116D01*
X77Y706D02*
X83D01*
X110D02*
X115D01*
X79Y707D02*
X81D01*
X112D02*
X114D01*
X93Y758D02*
X103D01*
X90Y759D02*
X109D01*
X87Y760D02*
X111D01*
X86Y761D02*
X113D01*
X84Y762D02*
X115D01*
X83Y763D02*
X116D01*
X82Y764D02*
X116D01*
X81Y765D02*
X93D01*
X94D02*
X117D01*
X81Y766D02*
X91D01*
X93D02*
X104D01*
X106D02*
X118D01*
X80Y766D02*
X89D01*
X93D02*
X102D01*
X108D02*
X118D01*
X80Y767D02*
X88D01*
X92D02*
X101D01*
X110D02*
X119D01*
X79Y768D02*
X88D01*
X92D02*
X100D01*
X112D02*
X119D01*
X79Y769D02*
X87D01*
X91D02*
X99D01*
X112D02*
X120D01*
X78Y770D02*
X86D01*
X91D02*
X99D01*
X112D02*
X120D01*
X77Y771D02*
X86D01*
X91D02*
X98D01*
X113D02*
X120D01*
X77Y772D02*
X85D01*
X91D02*
X98D01*
X113D02*
X120D01*
X77Y773D02*
X85D01*
X90D02*
X98D01*
X113D02*
X120D01*
X77Y774D02*
X84D01*
X90D02*
X97D01*
X113D02*
X120D01*
X77Y775D02*
X84D01*
X90D02*
X98D01*
X113D02*
X120D01*
X77Y776D02*
X84D01*
X91D02*
X98D01*
X112D02*
X119D01*
X76Y777D02*
X84D01*
X91D02*
X99D01*
X112D02*
X119D01*
X76Y778D02*
X83D01*
X91D02*
X100D01*
X111D02*
X119D01*
X76Y779D02*
X83D01*
X91D02*
X101D01*
X109D02*
X119D01*
X76Y780D02*
X83D01*
X92D02*
X103D01*
X107D02*
X118D01*
X76Y781D02*
X84D01*
X92D02*
X118D01*
X77Y781D02*
X84D01*
X93D02*
X117D01*
X77Y782D02*
X84D01*
X94D02*
X116D01*
X77Y783D02*
X85D01*
X94D02*
X115D01*
X77Y784D02*
X85D01*
X96D02*
X114D01*
X78Y785D02*
X84D01*
X98D02*
X112D01*
X79Y786D02*
X84D01*
X99D02*
X110D01*
X81Y787D02*
X81D01*
X105D02*
X105D01*
X79Y834D02*
X82D01*
X77Y835D02*
X83D01*
X77Y836D02*
X84D01*
X77Y837D02*
X84D01*
X77Y838D02*
X84D01*
X77Y839D02*
X85D01*
X77Y840D02*
X87D01*
X77Y841D02*
X89D01*
X77Y841D02*
X92D01*
X77Y842D02*
X94D01*
X77Y843D02*
X96D01*
X77Y844D02*
X98D01*
X77Y845D02*
X101D01*
X77Y846D02*
X103D01*
X77Y847D02*
X84D01*
X86D02*
X105D01*
X77Y848D02*
X84D01*
X88D02*
X107D01*
X77Y849D02*
X84D01*
X88D02*
X110D01*
X77Y850D02*
X84D01*
X88D02*
X112D01*
X77Y851D02*
X84D01*
X88D02*
X114D01*
X78Y852D02*
X83D01*
X88D02*
X95D01*
X97D02*
X116D01*
X88Y853D02*
X95D01*
X99D02*
X116D01*
X88Y854D02*
X95D01*
X102D02*
X116D01*
X88Y855D02*
X95D01*
X104D02*
X116D01*
X88Y856D02*
X95D01*
X106D02*
X116D01*
X88Y856D02*
X95D01*
X105D02*
X116D01*
X88Y857D02*
X95D01*
X103D02*
X116D01*
X88Y858D02*
X95D01*
X101D02*
X116D01*
X79Y859D02*
X82D01*
X88D02*
X95D01*
X99D02*
X116D01*
X77Y860D02*
X84D01*
X88D02*
X95D01*
X97D02*
X116D01*
X77Y861D02*
X84D01*
X88D02*
X95D01*
X95D02*
X116D01*
X77Y862D02*
X84D01*
X88D02*
X116D01*
X77Y863D02*
X84D01*
X88D02*
X116D01*
X77Y864D02*
X84D01*
X87D02*
X108D01*
X109D02*
X116D01*
X77Y865D02*
X84D01*
X85D02*
X106D01*
X109D02*
X116D01*
X77Y866D02*
X103D01*
X109D02*
X116D01*
X77Y867D02*
X101D01*
X109D02*
X116D01*
X77Y868D02*
X98D01*
X109D02*
X116D01*
X77Y869D02*
X96D01*
X109D02*
X116D01*
X77Y870D02*
X93D01*
X109D02*
X116D01*
X77Y871D02*
X91D01*
X109D02*
X116D01*
X77Y871D02*
X88D01*
X110D02*
X116D01*
X77Y872D02*
X86D01*
X111D02*
X115D01*
X77Y873D02*
X84D01*
X77Y874D02*
X84D01*
X77Y875D02*
X84D01*
X77Y876D02*
X84D01*
X78Y877D02*
X83D01*
X393Y391D02*
Y420D01*
X401*
Y391*
X393*
Y391D02*
X401D01*
X393Y392D02*
X401D01*
X393Y393D02*
X401D01*
X393Y394D02*
X401D01*
X393Y395D02*
X401D01*
X393Y396D02*
X401D01*
X393Y397D02*
X401D01*
X393Y398D02*
X401D01*
X393Y399D02*
X401D01*
X393Y400D02*
X401D01*
X393Y401D02*
X401D01*
X393Y402D02*
X401D01*
X393Y403D02*
X401D01*
X393Y404D02*
X401D01*
X393Y405D02*
X401D01*
X393Y406D02*
X401D01*
X393Y406D02*
X401D01*
X393Y407D02*
X401D01*
X393Y408D02*
X401D01*
X393Y409D02*
X401D01*
X393Y410D02*
X401D01*
X393Y411D02*
X401D01*
X393Y412D02*
X401D01*
X393Y413D02*
X401D01*
X393Y414D02*
X401D01*
X393Y415D02*
X401D01*
X393Y416D02*
X401D01*
X393Y417D02*
X401D01*
X393Y418D02*
X401D01*
X393Y419D02*
X401D01*
X393Y420D02*
X401D01*
X298Y402D02*
X288D01*
X285Y403*
X284Y405*
X285Y408*
X288Y409*
X298*
Y418*
X299Y422*
X301Y423*
X304Y422*
X305Y418*
Y409*
X315*
X319Y408*
X319Y405*
X319Y403*
X315Y402*
X305*
Y392*
X304Y388*
X301Y388*
X299Y388*
X298Y392*
Y402*
X301Y388D02*
X302D01*
X299Y389D02*
X305D01*
X299Y390D02*
X305D01*
X299Y391D02*
X305D01*
X298Y391D02*
X305D01*
X298Y392D02*
X305D01*
X298Y393D02*
X305D01*
X298Y394D02*
X305D01*
X298Y395D02*
X305D01*
X298Y396D02*
X305D01*
X298Y397D02*
X305D01*
X298Y398D02*
X305D01*
X298Y399D02*
X305D01*
X298Y400D02*
X305D01*
X298Y401D02*
X305D01*
X288Y402D02*
X316D01*
X285Y403D02*
X319D01*
X284Y404D02*
X319D01*
X284Y405D02*
X319D01*
X284Y406D02*
X319D01*
X284Y406D02*
X319D01*
X285Y407D02*
X319D01*
X286Y408D02*
X317D01*
X298Y409D02*
X305D01*
X298Y410D02*
X305D01*
X298Y411D02*
X305D01*
X298Y412D02*
X305D01*
X298Y413D02*
X305D01*
X298Y414D02*
X305D01*
X298Y415D02*
X305D01*
X298Y416D02*
X305D01*
X298Y417D02*
X305D01*
X298Y418D02*
X305D01*
X298Y419D02*
X305D01*
X298Y420D02*
X305D01*
X299Y421D02*
X305D01*
X299Y421D02*
X305D01*
X300Y422D02*
X304D01*
X190Y414D02*
X188Y416D01*
Y417*
X189Y421*
X190Y421*
X193*
X197*
X201Y421*
X201Y417*
X201Y416*
X199Y414*
X197Y414*
X195Y410*
X194Y406*
X195Y402*
X196Y399*
X197Y397*
X199*
X201Y398*
X203Y400*
X204Y403*
X204Y406*
X205Y410*
X207Y414*
X211Y418*
X213Y419*
X216Y420*
X221Y419*
X224Y416*
X227Y412*
X228Y406*
X227Y403*
X225Y399*
X227Y397*
X227Y395*
X227Y392*
X223Y391*
X218*
X214Y392*
X213Y395*
X214Y397*
X215Y399*
X218Y399*
X220Y402*
X221Y406*
X219Y411*
X218Y412*
X216Y413*
X214Y412*
X212Y410*
X212Y408*
X211Y404*
X209Y399*
X208Y396*
X204Y391*
X202Y391*
X199Y390*
X194Y391*
X191Y393*
X188Y398*
X187Y404*
X188Y410*
X190Y414*
X195Y391D02*
X201D01*
X193Y391D02*
X204D01*
X192Y392D02*
X205D01*
X214D02*
X227D01*
X191Y393D02*
X206D01*
X214D02*
X227D01*
X190Y394D02*
X207D01*
X213D02*
X227D01*
X190Y395D02*
X208D01*
X213D02*
X227D01*
X189Y396D02*
X208D01*
X214D02*
X227D01*
X188Y397D02*
X197D01*
X199D02*
X209D01*
X214D02*
X226D01*
X188Y398D02*
X196D01*
X201D02*
X209D01*
X215D02*
X225D01*
X188Y399D02*
X196D01*
X202D02*
X209D01*
X217D02*
X225D01*
X188Y400D02*
X195D01*
X203D02*
X209D01*
X218D02*
X226D01*
X188Y401D02*
X195D01*
X203D02*
X210D01*
X219D02*
X226D01*
X187Y402D02*
X195D01*
X203D02*
X210D01*
X220D02*
X227D01*
X187Y403D02*
X195D01*
X204D02*
X210D01*
X220D02*
X227D01*
X187Y404D02*
X195D01*
X204D02*
X211D01*
X221D02*
X228D01*
X187Y405D02*
X194D01*
X204D02*
X211D01*
X221D02*
X228D01*
X187Y406D02*
X194D01*
X204D02*
X211D01*
X221D02*
X228D01*
X187Y406D02*
X194D01*
X205D02*
X211D01*
X221D02*
X228D01*
X188Y407D02*
X195D01*
X205D02*
X211D01*
X221D02*
X228D01*
X188Y408D02*
X195D01*
X205D02*
X212D01*
X220D02*
X228D01*
X188Y409D02*
X195D01*
X205D02*
X212D01*
X220D02*
X228D01*
X188Y410D02*
X195D01*
X205D02*
X213D01*
X220D02*
X228D01*
X189Y411D02*
X196D01*
X206D02*
X213D01*
X219D02*
X227D01*
X189Y412D02*
X196D01*
X206D02*
X214D01*
X218D02*
X227D01*
X190Y413D02*
X197D01*
X207D02*
X226D01*
X190Y414D02*
X198D01*
X207D02*
X226D01*
X189Y415D02*
X200D01*
X208D02*
X225D01*
X188Y416D02*
X200D01*
X209D02*
X224D01*
X188Y417D02*
X201D01*
X210D02*
X223D01*
X188Y418D02*
X201D01*
X210D02*
X222D01*
X188Y419D02*
X201D01*
X212D02*
X221D01*
X188Y420D02*
X201D01*
X215D02*
X218D01*
X189Y421D02*
X201D01*
X393Y931D02*
Y960D01*
X401*
Y931*
X393*
Y932D02*
X401D01*
X393Y933D02*
X401D01*
X393Y934D02*
X401D01*
X393Y935D02*
X401D01*
X393Y936D02*
X401D01*
X393Y937D02*
X401D01*
X393Y938D02*
X401D01*
X393Y939D02*
X401D01*
X393Y939D02*
X401D01*
X393Y940D02*
X401D01*
X393Y941D02*
X401D01*
X393Y942D02*
X401D01*
X393Y943D02*
X401D01*
X393Y944D02*
X401D01*
X393Y945D02*
X401D01*
X393Y946D02*
X401D01*
X393Y947D02*
X401D01*
X393Y948D02*
X401D01*
X393Y949D02*
X401D01*
X393Y950D02*
X401D01*
X393Y951D02*
X401D01*
X393Y952D02*
X401D01*
X393Y953D02*
X401D01*
X393Y954D02*
X401D01*
X393Y954D02*
X401D01*
X393Y955D02*
X401D01*
X393Y956D02*
X401D01*
X393Y957D02*
X401D01*
X393Y958D02*
X401D01*
X393Y959D02*
X401D01*
X393Y960D02*
X401D01*
X298Y942D02*
X288D01*
X285Y943*
X284Y945*
X285Y949*
X288Y949*
X298*
Y959*
X299Y963*
X301Y964*
X304Y963*
X305Y959*
Y949*
X315*
X319Y949*
X319Y945*
X319Y943*
X315Y942*
X305*
Y933*
X304Y929*
X301Y928*
X299Y929*
X298Y933*
Y942*
X301Y928D02*
X302D01*
X299Y929D02*
X305D01*
X299Y930D02*
X305D01*
X299Y931D02*
X305D01*
X298Y932D02*
X305D01*
X298Y933D02*
X305D01*
X298Y934D02*
X305D01*
X298Y935D02*
X305D01*
X298Y936D02*
X305D01*
X298Y937D02*
X305D01*
X298Y938D02*
X305D01*
X298Y939D02*
X305D01*
X298Y939D02*
X305D01*
X298Y940D02*
X305D01*
X298Y941D02*
X305D01*
X288Y942D02*
X316D01*
X285Y943D02*
X319D01*
X284Y944D02*
X319D01*
X284Y945D02*
X319D01*
X284Y946D02*
X319D01*
X284Y947D02*
X319D01*
X285Y948D02*
X319D01*
X286Y949D02*
X317D01*
X298Y950D02*
X305D01*
X298Y951D02*
X305D01*
X298Y952D02*
X305D01*
X298Y953D02*
X305D01*
X298Y954D02*
X305D01*
X298Y954D02*
X305D01*
X298Y955D02*
X305D01*
X298Y956D02*
X305D01*
X298Y957D02*
X305D01*
X298Y958D02*
X305D01*
X298Y959D02*
X305D01*
X298Y960D02*
X305D01*
X299Y961D02*
X305D01*
X299Y962D02*
X305D01*
X300Y963D02*
X304D01*
X230Y936D02*
X204D01*
Y934*
X204Y932*
X201Y931*
X198Y932*
X197Y934*
Y936*
X195*
Y934*
X194Y932*
X191Y931*
X189Y932*
X188Y934*
Y936*
Y945*
Y948*
X189Y949*
X191Y950*
X194Y949*
X195Y948*
Y945*
Y943*
X197*
Y962*
X203*
X230Y945*
Y936*
X204Y943D02*
X221D01*
X204Y953*
Y943*
X195Y912D02*
Y897D01*
X196Y894*
X195Y892*
X191Y891*
X188*
Y922*
X196*
X202Y914*
X208Y908*
X212Y903*
X214Y900*
X216Y899*
X218Y898*
X220Y899*
X223Y901*
X223Y903*
X224Y905*
X223Y908*
X222Y912*
X219Y913*
X217Y915*
X216Y916*
X217Y919*
X219Y920*
X222Y919*
X224Y919*
X227Y916*
X230Y913*
X230Y909*
X231Y905*
X230Y900*
X227Y895*
X223Y892*
X218Y891*
X213Y892*
X210Y894*
X206Y898*
X204Y900*
X202Y903*
X199Y907*
X195Y912*
X188Y892D02*
X194D01*
X214D02*
X222D01*
X188Y893D02*
X195D01*
X212D02*
X224D01*
X188Y894D02*
X196D01*
X211D02*
X226D01*
X188Y895D02*
X196D01*
X210D02*
X227D01*
X188Y895D02*
X195D01*
X209D02*
X228D01*
X188Y896D02*
X195D01*
X208D02*
X228D01*
X188Y897D02*
X195D01*
X207D02*
X229D01*
X188Y898D02*
X195D01*
X206D02*
X218D01*
X218D02*
X229D01*
X188Y899D02*
X195D01*
X205D02*
X216D01*
X221D02*
X230D01*
X188Y900D02*
X195D01*
X204D02*
X214D01*
X222D02*
X231D01*
X188Y901D02*
X195D01*
X203D02*
X213D01*
X223D02*
X231D01*
X188Y902D02*
X195D01*
X203D02*
X212D01*
X223D02*
X231D01*
X188Y903D02*
X195D01*
X202D02*
X212D01*
X223D02*
X231D01*
X188Y904D02*
X195D01*
X201D02*
X211D01*
X224D02*
X231D01*
X188Y905D02*
X195D01*
X201D02*
X210D01*
X224D02*
X231D01*
X188Y906D02*
X195D01*
X200D02*
X209D01*
X224D02*
X231D01*
X188Y907D02*
X195D01*
X199D02*
X208D01*
X224D02*
X231D01*
X188Y908D02*
X195D01*
X198D02*
X208D01*
X224D02*
X231D01*
X188Y909D02*
X195D01*
X198D02*
X207D01*
X223D02*
X231D01*
X188Y910D02*
X195D01*
X197D02*
X206D01*
X223D02*
X230D01*
X188Y910D02*
X195D01*
X196D02*
X205D01*
X222D02*
X230D01*
X188Y911D02*
X195D01*
X195D02*
X204D01*
X222D02*
X230D01*
X188Y912D02*
X203D01*
X220D02*
X230D01*
X188Y913D02*
X203D01*
X219D02*
X230D01*
X188Y914D02*
X202D01*
X218D02*
X229D01*
X188Y915D02*
X201D01*
X217D02*
X228D01*
X188Y916D02*
X200D01*
X216D02*
X227D01*
X188Y917D02*
X200D01*
X216D02*
X226D01*
X188Y918D02*
X199D01*
X217D02*
X225D01*
X188Y919D02*
X198D01*
X217D02*
X223D01*
X188Y920D02*
X197D01*
X218D02*
X221D01*
X188Y921D02*
X197D01*
X188Y922D02*
X196D01*
X189Y932D02*
X194D01*
X198D02*
X204D01*
X188Y933D02*
X195D01*
X198D02*
X204D01*
X188Y934D02*
X195D01*
X197D02*
X204D01*
X188Y935D02*
X195D01*
X197D02*
X204D01*
X188Y936D02*
X195D01*
X197D02*
X204D01*
X188Y937D02*
X230D01*
X188Y938D02*
X230D01*
X188Y939D02*
X230D01*
X188Y939D02*
X230D01*
X188Y940D02*
X230D01*
X188Y941D02*
X230D01*
X188Y942D02*
X230D01*
X188Y943D02*
X195D01*
X197D02*
X204D01*
X221D02*
X230D01*
X188Y944D02*
X195D01*
X197D02*
X204D01*
X219D02*
X230D01*
X188Y945D02*
X195D01*
X197D02*
X204D01*
X218D02*
X230D01*
X188Y946D02*
X195D01*
X197D02*
X204D01*
X216D02*
X229D01*
X188Y947D02*
X195D01*
X197D02*
X204D01*
X215D02*
X228D01*
X188Y948D02*
X195D01*
X197D02*
X204D01*
X213D02*
X226D01*
X188Y949D02*
X194D01*
X197D02*
X204D01*
X212D02*
X225D01*
X190Y950D02*
X192D01*
X197D02*
X204D01*
X210D02*
X223D01*
X197Y951D02*
X204D01*
X209D02*
X222D01*
X197Y952D02*
X204D01*
X207D02*
X220D01*
X197Y953D02*
X204D01*
X206D02*
X218D01*
X197Y954D02*
X217D01*
X197Y954D02*
X215D01*
X197Y955D02*
X214D01*
X197Y956D02*
X212D01*
X197Y957D02*
X211D01*
X197Y958D02*
X209D01*
X197Y959D02*
X208D01*
X197Y960D02*
X206D01*
X197Y961D02*
X204D01*
X136Y936D02*
X110D01*
Y934*
X109Y932*
X106Y931*
X104Y932*
X103Y934*
Y936*
X101*
Y934*
X100Y932*
X97Y931*
X94Y932*
X93Y934*
Y936*
Y945*
Y948*
X94Y949*
X97Y950*
X100Y949*
X101Y948*
Y945*
Y943*
X103*
Y962*
X108*
X136Y945*
Y936*
X110Y943D02*
X127D01*
X110Y953*
Y943*
X136Y895D02*
X110D01*
Y893*
X109Y891*
X106Y890*
X104Y891*
X103Y893*
Y895*
X101*
Y893*
X100Y891*
X97Y890*
X94Y891*
X93Y893*
Y895*
Y904*
Y907*
X94Y908*
X97Y909*
X100Y908*
X101Y907*
Y904*
Y902*
X103*
Y921*
X108*
X136Y904*
Y895*
X110Y902D02*
X127D01*
X110Y912*
Y902*
X95Y891D02*
X99D01*
X105D02*
X108D01*
X94Y892D02*
X100D01*
X103D02*
X110D01*
X93Y893D02*
X101D01*
X103D02*
X110D01*
X93Y894D02*
X101D01*
X103D02*
X110D01*
X93Y895D02*
X101D01*
X103D02*
X110D01*
X93Y895D02*
X136D01*
X93Y896D02*
X136D01*
X93Y897D02*
X136D01*
X93Y898D02*
X136D01*
X93Y899D02*
X136D01*
X93Y900D02*
X136D01*
X93Y901D02*
X136D01*
X93Y902D02*
X136D01*
X93Y903D02*
X101D01*
X103D02*
X110D01*
X125D02*
X136D01*
X93Y904D02*
X101D01*
X103D02*
X110D01*
X124D02*
X136D01*
X93Y905D02*
X101D01*
X103D02*
X110D01*
X122D02*
X135D01*
X93Y906D02*
X101D01*
X103D02*
X110D01*
X121D02*
X134D01*
X93Y907D02*
X101D01*
X103D02*
X110D01*
X119D02*
X132D01*
X94Y908D02*
X100D01*
X103D02*
X110D01*
X118D02*
X131D01*
X95Y909D02*
X99D01*
X103D02*
X110D01*
X116D02*
X129D01*
X103Y910D02*
X110D01*
X115D02*
X128D01*
X103Y910D02*
X110D01*
X113D02*
X126D01*
X103Y911D02*
X110D01*
X112D02*
X124D01*
X103Y912D02*
X123D01*
X103Y913D02*
X121D01*
X103Y914D02*
X120D01*
X103Y915D02*
X118D01*
X103Y916D02*
X117D01*
X103Y917D02*
X115D01*
X103Y918D02*
X113D01*
X103Y919D02*
X112D01*
X103Y920D02*
X110D01*
X103Y921D02*
X109D01*
X94Y932D02*
X100D01*
X104D02*
X109D01*
X94Y933D02*
X100D01*
X103D02*
X110D01*
X93Y934D02*
X101D01*
X103D02*
X110D01*
X93Y935D02*
X101D01*
X103D02*
X110D01*
X93Y936D02*
X101D01*
X103D02*
X110D01*
X93Y937D02*
X136D01*
X93Y938D02*
X136D01*
X93Y939D02*
X136D01*
X93Y939D02*
X136D01*
X93Y940D02*
X136D01*
X93Y941D02*
X136D01*
X93Y942D02*
X136D01*
X93Y943D02*
X101D01*
X103D02*
X110D01*
X126D02*
X136D01*
X93Y944D02*
X101D01*
X103D02*
X110D01*
X125D02*
X136D01*
X93Y945D02*
X101D01*
X103D02*
X110D01*
X123D02*
X136D01*
X93Y946D02*
X101D01*
X103D02*
X110D01*
X122D02*
X135D01*
X93Y947D02*
X101D01*
X103D02*
X110D01*
X120D02*
X133D01*
X94Y948D02*
X100D01*
X103D02*
X110D01*
X119D02*
X132D01*
X94Y949D02*
X100D01*
X103D02*
X110D01*
X117D02*
X130D01*
X96Y950D02*
X98D01*
X103D02*
X110D01*
X116D02*
X129D01*
X103Y951D02*
X110D01*
X114D02*
X127D01*
X103Y952D02*
X110D01*
X113D02*
X126D01*
X103Y953D02*
X110D01*
X111D02*
X124D01*
X103Y954D02*
X122D01*
X103Y954D02*
X121D01*
X103Y955D02*
X119D01*
X103Y956D02*
X118D01*
X103Y957D02*
X116D01*
X103Y958D02*
X115D01*
X103Y959D02*
X113D01*
X103Y960D02*
X111D01*
X103Y961D02*
X110D01*
X393Y1241D02*
Y1270D01*
X401*
Y1241*
X393*
Y1241D02*
X401D01*
X393Y1242D02*
X401D01*
X393Y1243D02*
X401D01*
X393Y1244D02*
X401D01*
X393Y1245D02*
X401D01*
X393Y1246D02*
X401D01*
X393Y1247D02*
X401D01*
X393Y1248D02*
X401D01*
X393Y1249D02*
X401D01*
X393Y1250D02*
X401D01*
X393Y1251D02*
X401D01*
X393Y1252D02*
X401D01*
X393Y1253D02*
X401D01*
X393Y1254D02*
X401D01*
X393Y1255D02*
X401D01*
X393Y1256D02*
X401D01*
X393Y1256D02*
X401D01*
X393Y1257D02*
X401D01*
X393Y1258D02*
X401D01*
X393Y1259D02*
X401D01*
X393Y1260D02*
X401D01*
X393Y1261D02*
X401D01*
X393Y1262D02*
X401D01*
X393Y1263D02*
X401D01*
X393Y1264D02*
X401D01*
X393Y1265D02*
X401D01*
X393Y1266D02*
X401D01*
X393Y1267D02*
X401D01*
X393Y1268D02*
X401D01*
X393Y1269D02*
X401D01*
X393Y1270D02*
X401D01*
X298Y1252D02*
X288D01*
X285Y1252*
X284Y1255*
X285Y1258*
X288Y1259*
X298*
Y1268*
X299Y1272*
X301Y1273*
X304Y1272*
X305Y1268*
Y1259*
X315*
X319Y1258*
X319Y1255*
X319Y1252*
X315Y1252*
X305*
Y1242*
X304Y1238*
X301Y1238*
X299Y1238*
X298Y1242*
Y1252*
X301Y1238D02*
X302D01*
X299Y1239D02*
X305D01*
X299Y1240D02*
X305D01*
X299Y1241D02*
X305D01*
X298Y1241D02*
X305D01*
X298Y1242D02*
X305D01*
X298Y1243D02*
X305D01*
X298Y1244D02*
X305D01*
X298Y1245D02*
X305D01*
X298Y1246D02*
X305D01*
X298Y1247D02*
X305D01*
X298Y1248D02*
X305D01*
X298Y1249D02*
X305D01*
X298Y1250D02*
X305D01*
X298Y1251D02*
X305D01*
X288Y1252D02*
X316D01*
X285Y1253D02*
X319D01*
X284Y1254D02*
X319D01*
X284Y1255D02*
X319D01*
X284Y1256D02*
X319D01*
X284Y1256D02*
X319D01*
X285Y1257D02*
X319D01*
X286Y1258D02*
X317D01*
X298Y1259D02*
X305D01*
X298Y1260D02*
X305D01*
X298Y1261D02*
X305D01*
X298Y1262D02*
X305D01*
X298Y1263D02*
X305D01*
X298Y1264D02*
X305D01*
X298Y1265D02*
X305D01*
X298Y1266D02*
X305D01*
X298Y1267D02*
X305D01*
X298Y1268D02*
X305D01*
X298Y1269D02*
X305D01*
X298Y1270D02*
X305D01*
X299Y1271D02*
X305D01*
X299Y1271D02*
X305D01*
X300Y1272D02*
X304D01*
X199Y1248D02*
Y1264D01*
X195Y1265*
Y1264*
Y1261*
X194Y1260*
X191Y1259*
X189Y1260*
X188Y1261*
Y1264*
Y1273*
Y1275*
X189Y1277*
X191Y1278*
X194Y1277*
X195Y1275*
Y1273*
X220Y1264*
Y1268*
Y1271*
X221Y1272*
X223Y1273*
X227Y1272*
X227Y1271*
Y1268*
Y1252*
X195Y1238*
Y1236*
X194Y1235*
X193Y1234*
X191*
X189Y1234*
X188Y1236*
Y1238*
Y1248*
Y1250*
X189Y1252*
X191Y1252*
X194Y1252*
X195Y1250*
Y1248*
Y1246*
X199Y1248*
X206Y1251D02*
X218Y1256D01*
X206Y1261*
Y1251*
X223Y1220D02*
X215D01*
X216Y1213*
X215Y1208*
X212Y1203*
X208Y1200*
X201Y1199*
X196Y1200*
X191Y1203*
X188Y1208*
X187Y1215*
X188Y1223*
X190Y1228*
X192Y1230*
X194Y1230*
X197Y1230*
X197Y1227*
X197Y1225*
X195Y1222*
X194Y1216*
Y1212*
X196Y1208*
X198Y1207*
X201Y1206*
X204Y1207*
X207Y1208*
X208Y1211*
X209Y1214*
X208Y1218*
X208Y1222*
X207Y1224*
X208Y1227*
X211Y1227*
X230*
Y1206*
Y1204*
X230Y1202*
X227Y1201*
X224Y1202*
X223Y1206*
Y1220*
X199Y1199D02*
X204D01*
X195Y1200D02*
X208D01*
X194Y1201D02*
X210D01*
X192Y1202D02*
X211D01*
X224D02*
X230D01*
X191Y1203D02*
X212D01*
X224D02*
X230D01*
X190Y1204D02*
X213D01*
X224D02*
X230D01*
X190Y1205D02*
X214D01*
X224D02*
X230D01*
X189Y1206D02*
X214D01*
X223D02*
X230D01*
X189Y1207D02*
X198D01*
X204D02*
X215D01*
X223D02*
X230D01*
X188Y1208D02*
X197D01*
X206D02*
X216D01*
X223D02*
X230D01*
X188Y1209D02*
X196D01*
X207D02*
X216D01*
X223D02*
X230D01*
X188Y1210D02*
X195D01*
X208D02*
X216D01*
X223D02*
X230D01*
X188Y1211D02*
X195D01*
X208D02*
X216D01*
X223D02*
X230D01*
X188Y1211D02*
X194D01*
X209D02*
X216D01*
X223D02*
X230D01*
X187Y1212D02*
X194D01*
X209D02*
X216D01*
X223D02*
X230D01*
X187Y1213D02*
X194D01*
X209D02*
X216D01*
X223D02*
X230D01*
X187Y1214D02*
X194D01*
X209D02*
X216D01*
X223D02*
X230D01*
X187Y1215D02*
X194D01*
X209D02*
X216D01*
X223D02*
X230D01*
X187Y1216D02*
X194D01*
X209D02*
X216D01*
X223D02*
X230D01*
X187Y1217D02*
X194D01*
X209D02*
X215D01*
X223D02*
X230D01*
X187Y1218D02*
X194D01*
X208D02*
X215D01*
X223D02*
X230D01*
X188Y1219D02*
X195D01*
X208D02*
X215D01*
X223D02*
X230D01*
X188Y1220D02*
X195D01*
X208D02*
X215D01*
X223D02*
X230D01*
X188Y1221D02*
X195D01*
X208D02*
X230D01*
X188Y1222D02*
X195D01*
X208D02*
X230D01*
X188Y1223D02*
X195D01*
X207D02*
X230D01*
X188Y1224D02*
X196D01*
X207D02*
X230D01*
X189Y1225D02*
X196D01*
X207D02*
X230D01*
X189Y1226D02*
X197D01*
X207D02*
X230D01*
X190Y1226D02*
X197D01*
X208D02*
X230D01*
X190Y1227D02*
X197D01*
X191Y1228D02*
X197D01*
X191Y1229D02*
X197D01*
X194Y1230D02*
X195D01*
X190Y1234D02*
X193D01*
X188Y1235D02*
X194D01*
X188Y1236D02*
X195D01*
X188Y1237D02*
X195D01*
X188Y1238D02*
X195D01*
X188Y1239D02*
X196D01*
X188Y1240D02*
X198D01*
X188Y1241D02*
X200D01*
X188Y1241D02*
X203D01*
X188Y1242D02*
X205D01*
X188Y1243D02*
X207D01*
X188Y1244D02*
X209D01*
X188Y1245D02*
X212D01*
X188Y1246D02*
X214D01*
X188Y1247D02*
X195D01*
X197D02*
X216D01*
X188Y1248D02*
X195D01*
X199D02*
X218D01*
X188Y1249D02*
X195D01*
X199D02*
X221D01*
X188Y1250D02*
X195D01*
X199D02*
X223D01*
X188Y1251D02*
X195D01*
X199D02*
X225D01*
X189Y1252D02*
X194D01*
X199D02*
X206D01*
X208D02*
X227D01*
X199Y1253D02*
X206D01*
X210D02*
X227D01*
X199Y1254D02*
X206D01*
X213D02*
X227D01*
X199Y1255D02*
X206D01*
X215D02*
X227D01*
X199Y1256D02*
X206D01*
X218D02*
X227D01*
X199Y1256D02*
X206D01*
X216D02*
X227D01*
X199Y1257D02*
X206D01*
X214D02*
X227D01*
X199Y1258D02*
X206D01*
X212D02*
X227D01*
X190Y1259D02*
X193D01*
X199D02*
X206D01*
X210D02*
X227D01*
X188Y1260D02*
X195D01*
X199D02*
X206D01*
X208D02*
X227D01*
X188Y1261D02*
X195D01*
X199D02*
X206D01*
X206D02*
X227D01*
X188Y1262D02*
X195D01*
X199D02*
X227D01*
X188Y1263D02*
X195D01*
X199D02*
X227D01*
X188Y1264D02*
X195D01*
X198D02*
X219D01*
X220D02*
X227D01*
X188Y1265D02*
X195D01*
X196D02*
X217D01*
X220D02*
X227D01*
X188Y1266D02*
X214D01*
X220D02*
X227D01*
X188Y1267D02*
X212D01*
X220D02*
X227D01*
X188Y1268D02*
X209D01*
X220D02*
X227D01*
X188Y1269D02*
X207D01*
X220D02*
X227D01*
X188Y1270D02*
X204D01*
X220D02*
X227D01*
X188Y1271D02*
X202D01*
X220D02*
X227D01*
X188Y1271D02*
X199D01*
X221D02*
X227D01*
X188Y1272D02*
X197D01*
X222D02*
X226D01*
X188Y1273D02*
X195D01*
X188Y1274D02*
X195D01*
X188Y1275D02*
X195D01*
X188Y1276D02*
X195D01*
X189Y1277D02*
X194D01*
X136Y1245D02*
X110D01*
Y1243*
X109Y1241*
X106Y1241*
X104Y1241*
X103Y1243*
Y1245*
X101*
Y1243*
X100Y1241*
X97Y1241*
X94Y1241*
X93Y1243*
Y1245*
Y1255*
Y1257*
X94Y1259*
X97Y1260*
X100Y1259*
X101Y1257*
Y1255*
Y1252*
X103*
Y1271*
X108*
X136Y1255*
Y1245*
X110Y1252D02*
X127D01*
X110Y1263*
Y1252*
X119Y1200D02*
X111D01*
X104Y1201*
X98Y1204*
X94Y1208*
X93Y1215*
Y1219*
X94Y1222*
X97Y1224*
X101Y1227*
X106Y1229*
X111Y1230*
X119*
X125Y1229*
X130Y1226*
X135Y1221*
X137Y1215*
X136Y1211*
X135Y1208*
X132Y1205*
X128Y1202*
X123Y1201*
X119Y1200*
X118Y1207D02*
X123Y1208D01*
X127Y1210*
X129Y1212*
X130Y1215*
X129Y1217*
X127Y1219*
X123Y1222*
X118Y1223*
X111*
X106Y1222*
X102Y1219*
X101Y1217*
X100Y1215*
X101Y1212*
X102Y1210*
X106Y1208*
X111Y1207*
X118*
X107Y1200D02*
X122D01*
X103Y1201D02*
X125D01*
X101Y1202D02*
X128D01*
X99Y1203D02*
X129D01*
X98Y1204D02*
X130D01*
X97Y1205D02*
X132D01*
X96Y1206D02*
X133D01*
X96Y1207D02*
X134D01*
X95Y1208D02*
X106D01*
X124D02*
X135D01*
X94Y1209D02*
X104D01*
X125D02*
X135D01*
X94Y1210D02*
X103D01*
X127D02*
X136D01*
X94Y1211D02*
X102D01*
X128D02*
X136D01*
X93Y1211D02*
X101D01*
X129D02*
X136D01*
X93Y1212D02*
X100D01*
X129D02*
X136D01*
X93Y1213D02*
X100D01*
X129D02*
X136D01*
X93Y1214D02*
X100D01*
X130D02*
X137D01*
X93Y1215D02*
X100D01*
X129D02*
X137D01*
X93Y1216D02*
X100D01*
X129D02*
X136D01*
X93Y1217D02*
X101D01*
X129D02*
X136D01*
X93Y1218D02*
X101D01*
X128D02*
X136D01*
X93Y1219D02*
X102D01*
X128D02*
X136D01*
X93Y1220D02*
X103D01*
X127D02*
X135D01*
X94Y1221D02*
X104D01*
X125D02*
X135D01*
X94Y1222D02*
X106D01*
X123D02*
X134D01*
X95Y1223D02*
X133D01*
X96Y1224D02*
X133D01*
X97Y1225D02*
X132D01*
X98Y1226D02*
X131D01*
X99Y1226D02*
X129D01*
X101Y1227D02*
X128D01*
X104Y1228D02*
X126D01*
X108Y1229D02*
X122D01*
X94Y1241D02*
X100D01*
X104D02*
X109D01*
X94Y1242D02*
X100D01*
X103D02*
X110D01*
X93Y1243D02*
X101D01*
X103D02*
X110D01*
X93Y1244D02*
X101D01*
X103D02*
X110D01*
X93Y1245D02*
X101D01*
X103D02*
X110D01*
X93Y1246D02*
X136D01*
X93Y1247D02*
X136D01*
X93Y1248D02*
X136D01*
X93Y1249D02*
X136D01*
X93Y1250D02*
X136D01*
X93Y1251D02*
X136D01*
X93Y1252D02*
X136D01*
X93Y1253D02*
X101D01*
X103D02*
X110D01*
X126D02*
X136D01*
X93Y1254D02*
X101D01*
X103D02*
X110D01*
X125D02*
X136D01*
X93Y1255D02*
X101D01*
X103D02*
X110D01*
X123D02*
X136D01*
X93Y1256D02*
X101D01*
X103D02*
X110D01*
X122D02*
X135D01*
X93Y1256D02*
X101D01*
X103D02*
X110D01*
X120D02*
X133D01*
X94Y1257D02*
X100D01*
X103D02*
X110D01*
X119D02*
X132D01*
X94Y1258D02*
X100D01*
X103D02*
X110D01*
X117D02*
X130D01*
X96Y1259D02*
X98D01*
X103D02*
X110D01*
X116D02*
X129D01*
X103Y1260D02*
X110D01*
X114D02*
X127D01*
X103Y1261D02*
X110D01*
X113D02*
X126D01*
X103Y1262D02*
X110D01*
X111D02*
X124D01*
X103Y1263D02*
X122D01*
X103Y1264D02*
X121D01*
X103Y1265D02*
X119D01*
X103Y1266D02*
X118D01*
X103Y1267D02*
X116D01*
X103Y1268D02*
X115D01*
X103Y1269D02*
X113D01*
X103Y1270D02*
X111D01*
X103Y1271D02*
X110D01*
X543Y411D02*
Y401D01*
X539Y400*
X535Y398*
X528Y397*
X518Y399*
X513Y402*
X510Y404*
X509Y407*
X508Y411*
X507Y415*
Y419*
X508Y426*
X511Y431*
X514Y434*
X517Y437*
X521Y438*
X526Y438*
X531Y438*
X536Y435*
X537Y437*
X539Y438*
X542Y437*
X543Y433*
Y429*
Y427*
X541Y425*
X538Y424*
X536Y425*
X535Y427*
X534Y429*
X531Y430*
X526Y431*
X520Y430*
X517Y428*
X516Y426*
X515Y423*
X514Y419*
Y415*
X515Y410*
X517Y407*
X521Y405*
X527Y404*
X532*
X536Y406*
Y411*
X528*
X526*
X525Y412*
X524Y414*
X525Y417*
X526Y418*
X528*
X543*
X545Y417*
X546Y414*
X545Y412*
X543Y411*
X615Y409D02*
X599D01*
X598Y405*
X599*
X602*
X603Y404*
X604Y401*
X603Y399*
X602Y398*
X599*
X590*
X588*
X586Y399*
X585Y401*
X586Y404*
X588Y405*
X590*
X599Y430*
X595*
X592*
X591Y431*
X590Y434*
X591Y437*
X592Y438*
X595*
X611*
X625Y405*
X627*
X628Y404*
X629Y403*
Y401*
X628Y399*
X627Y398*
X625*
X615*
X613*
X611Y399*
X610Y401*
X611Y404*
X613Y405*
X615*
X617*
X615Y409*
X612Y416D02*
X607Y428D01*
X602Y416*
X612*
X658Y415D02*
X653Y412D01*
X648Y412*
X643Y412*
X639Y415*
X636Y421*
X635Y427*
X636Y431*
X638Y436*
X643Y440*
X649Y441*
X654Y441*
X658Y438*
X661Y435*
X663Y430*
X664Y424*
X665Y419*
X664Y414*
X662Y409*
X660Y405*
X657Y402*
X650Y398*
X643Y397*
X639Y398*
X636Y399*
X636Y401*
X635Y402*
X636Y405*
X638Y406*
X640Y405*
X643Y404*
X647Y405*
X652Y408*
X656Y411*
X658Y415*
X657Y427D02*
X655Y430D01*
X654Y433*
X651Y434*
X649Y434*
X646Y434*
X644Y432*
X643Y430*
X642Y427*
X643Y423*
X644Y421*
X646Y419*
X648Y419*
X651Y419*
X653Y420*
X655Y423*
X657Y427*
X740Y441D02*
Y415D01*
X743*
X744Y414*
X745Y411*
X744Y408*
X743Y408*
X740*
Y405*
X743*
X744Y404*
X745Y401*
X744Y399*
X743Y398*
X740*
X731*
X728*
X727Y399*
X726Y401*
X727Y404*
X728Y405*
X731*
X733*
Y408*
X714*
Y413*
X731Y441*
X740*
X733Y415D02*
Y431D01*
X723Y415*
X733*
X786Y423D02*
Y415D01*
X785Y409*
X782Y403*
X777Y399*
X771Y397*
X767*
X764Y399*
X762Y401*
X758Y405*
X757Y411*
X756Y415*
Y423*
X757Y430*
X760Y435*
X765Y440*
X771Y441*
X775Y441*
X778Y440*
X780Y437*
X784Y433*
X785Y428*
X786Y423*
X779Y423D02*
X778Y428D01*
X776Y432*
X774Y434*
X771Y434*
X769Y434*
X766Y432*
X764Y428*
X763Y423*
Y415*
X764Y411*
X766Y407*
X769Y405*
X771Y404*
X774Y405*
X776Y407*
X778Y411*
X779Y415*
Y423*
X863Y441D02*
Y415D01*
X865*
X867Y414*
X868Y411*
X867Y408*
X865Y408*
X863*
Y405*
X865*
X867Y404*
X868Y401*
X867Y399*
X865Y398*
X863*
X854*
X851*
X850Y399*
X849Y401*
X850Y404*
X851Y405*
X854*
X856*
Y408*
X837*
Y413*
X854Y441*
X863*
X856Y415D02*
Y431D01*
X846Y415*
X856*
X888Y405D02*
X903D01*
X905Y406*
X907Y405*
X908Y401*
Y398*
X877*
Y406*
X885Y412*
X891Y418*
X896Y422*
X899Y424*
X900Y427*
X901Y428*
X900Y430*
X899Y433*
X896Y434*
X894Y434*
X891Y434*
X888Y432*
X886Y429*
X884Y427*
X883Y427*
X880Y427*
X879Y430*
X880Y432*
X880Y434*
X883Y438*
X886Y440*
X890Y441*
X894Y441*
X899Y441*
X904Y438*
X907Y434*
X908Y428*
X907Y423*
X905Y420*
X901Y416*
X899Y415*
X896Y412*
X892Y409*
X888Y405*
X980Y441D02*
Y405D01*
X987*
X989*
X991Y404*
X991Y401*
X991Y399*
X989Y398*
X987*
X965*
X963*
X962Y399*
X961Y401*
X962Y404*
X963Y405*
X965*
X973*
Y433*
X966Y430*
X964*
X962Y431*
X961Y434*
X962Y436*
X962Y437*
X965Y438*
X980Y441*
X1021D02*
Y405D01*
X1028*
X1030*
X1032Y404*
X1032Y401*
X1032Y399*
X1030Y398*
X1028*
X1006*
X1004*
X1002Y399*
X1002Y401*
X1002Y404*
X1004Y405*
X1006*
X1014*
Y433*
X1007Y430*
X1005*
X1002Y431*
X1002Y434*
X1002Y436*
X1003Y437*
X1006Y438*
X1021Y441*
X526Y398D02*
X530D01*
X641D02*
X645D01*
X766D02*
X772D01*
X520Y399D02*
X536D01*
X587D02*
X603D01*
X612D02*
X628D01*
X637D02*
X651D01*
X728D02*
X744D01*
X765D02*
X776D01*
X850D02*
X866D01*
X877D02*
X908D01*
X962D02*
X990D01*
X1003D02*
X1031D01*
X517Y400D02*
X538D01*
X586D02*
X603D01*
X611D02*
X629D01*
X636D02*
X652D01*
X727D02*
X744D01*
X763D02*
X778D01*
X850D02*
X867D01*
X877D02*
X908D01*
X961D02*
X991D01*
X1002D02*
X1032D01*
X516Y400D02*
X541D01*
X585D02*
X604D01*
X611D02*
X629D01*
X636D02*
X654D01*
X726D02*
X745D01*
X762D02*
X779D01*
X849D02*
X868D01*
X877D02*
X908D01*
X961D02*
X991D01*
X1002D02*
X1032D01*
X514Y401D02*
X543D01*
X585D02*
X604D01*
X610D02*
X629D01*
X635D02*
X656D01*
X726D02*
X745D01*
X761D02*
X780D01*
X849D02*
X868D01*
X877D02*
X908D01*
X961D02*
X991D01*
X1002D02*
X1032D01*
X512Y402D02*
X543D01*
X585D02*
X604D01*
X611D02*
X629D01*
X635D02*
X657D01*
X726D02*
X745D01*
X761D02*
X781D01*
X849D02*
X868D01*
X877D02*
X908D01*
X961D02*
X991D01*
X1002D02*
X1032D01*
X511Y403D02*
X543D01*
X586D02*
X604D01*
X611D02*
X629D01*
X635D02*
X658D01*
X727D02*
X745D01*
X760D02*
X782D01*
X849D02*
X867D01*
X877D02*
X908D01*
X961D02*
X991D01*
X1002D02*
X1032D01*
X510Y404D02*
X543D01*
X586D02*
X603D01*
X611D02*
X628D01*
X635D02*
X659D01*
X727D02*
X744D01*
X759D02*
X783D01*
X850D02*
X867D01*
X877D02*
X907D01*
X961D02*
X991D01*
X1002D02*
X1032D01*
X510Y405D02*
X522D01*
X533D02*
X543D01*
X587D02*
X602D01*
X613D02*
X627D01*
X636D02*
X641D01*
X647D02*
X660D01*
X728D02*
X743D01*
X758D02*
X769D01*
X774D02*
X783D01*
X851D02*
X866D01*
X877D02*
X907D01*
X963D02*
X989D01*
X1004D02*
X1030D01*
X509Y406D02*
X519D01*
X536D02*
X543D01*
X590D02*
X598D01*
X616D02*
X624D01*
X649D02*
X660D01*
X733D02*
X740D01*
X758D02*
X767D01*
X775D02*
X784D01*
X856D02*
X863D01*
X877D02*
X889D01*
X973D02*
X980D01*
X1014D02*
X1021D01*
X509Y407D02*
X517D01*
X536D02*
X543D01*
X591D02*
X598D01*
X616D02*
X624D01*
X651D02*
X661D01*
X733D02*
X740D01*
X758D02*
X766D01*
X776D02*
X784D01*
X856D02*
X863D01*
X879D02*
X890D01*
X973D02*
X980D01*
X1014D02*
X1021D01*
X509Y408D02*
X517D01*
X536D02*
X543D01*
X591D02*
X599D01*
X616D02*
X623D01*
X653D02*
X662D01*
X714D02*
X743D01*
X758D02*
X766D01*
X776D02*
X785D01*
X837D02*
X866D01*
X880D02*
X891D01*
X973D02*
X980D01*
X1014D02*
X1021D01*
X508Y409D02*
X516D01*
X536D02*
X543D01*
X591D02*
X599D01*
X615D02*
X623D01*
X654D02*
X662D01*
X714D02*
X744D01*
X757D02*
X765D01*
X777D02*
X785D01*
X837D02*
X867D01*
X881D02*
X892D01*
X973D02*
X980D01*
X1014D02*
X1021D01*
X508Y410D02*
X515D01*
X536D02*
X543D01*
X592D02*
X623D01*
X655D02*
X663D01*
X714D02*
X745D01*
X757D02*
X764D01*
X778D02*
X785D01*
X837D02*
X868D01*
X882D02*
X893D01*
X973D02*
X980D01*
X1014D02*
X1021D01*
X508Y411D02*
X515D01*
X526D02*
X543D01*
X592D02*
X622D01*
X656D02*
X663D01*
X714D02*
X745D01*
X757D02*
X764D01*
X778D02*
X785D01*
X837D02*
X868D01*
X883D02*
X894D01*
X973D02*
X980D01*
X1014D02*
X1021D01*
X508Y412D02*
X515D01*
X524D02*
X545D01*
X592D02*
X622D01*
X647D02*
X649D01*
X656D02*
X663D01*
X714D02*
X745D01*
X757D02*
X764D01*
X778D02*
X785D01*
X837D02*
X868D01*
X884D02*
X895D01*
X973D02*
X980D01*
X1014D02*
X1021D01*
X508Y413D02*
X515D01*
X524D02*
X545D01*
X593D02*
X621D01*
X643D02*
X653D01*
X657D02*
X664D01*
X714D02*
X745D01*
X757D02*
X764D01*
X778D02*
X786D01*
X837D02*
X867D01*
X886D02*
X897D01*
X973D02*
X980D01*
X1014D02*
X1021D01*
X507Y414D02*
X514D01*
X524D02*
X546D01*
X593D02*
X621D01*
X642D02*
X655D01*
X657D02*
X664D01*
X715D02*
X744D01*
X756D02*
X763D01*
X779D02*
X786D01*
X837D02*
X867D01*
X887D02*
X898D01*
X973D02*
X980D01*
X1014D02*
X1021D01*
X507Y415D02*
X514D01*
X524D02*
X546D01*
X593D02*
X621D01*
X640D02*
X656D01*
X657D02*
X664D01*
X715D02*
X743D01*
X756D02*
X763D01*
X779D02*
X786D01*
X838D02*
X866D01*
X888D02*
X899D01*
X973D02*
X980D01*
X1014D02*
X1021D01*
X507Y415D02*
X514D01*
X524D02*
X545D01*
X594D02*
X620D01*
X639D02*
X664D01*
X716D02*
X723D01*
X733D02*
X740D01*
X756D02*
X763D01*
X779D02*
X786D01*
X839D02*
X846D01*
X856D02*
X863D01*
X889D02*
X900D01*
X973D02*
X980D01*
X1014D02*
X1021D01*
X507Y416D02*
X514D01*
X524D02*
X545D01*
X594D02*
X602D01*
X612D02*
X620D01*
X638D02*
X664D01*
X716D02*
X724D01*
X733D02*
X740D01*
X756D02*
X763D01*
X779D02*
X786D01*
X839D02*
X847D01*
X856D02*
X863D01*
X890D02*
X901D01*
X973D02*
X980D01*
X1014D02*
X1021D01*
X507Y417D02*
X514D01*
X525D02*
X544D01*
X594D02*
X602D01*
X612D02*
X620D01*
X638D02*
X664D01*
X717D02*
X725D01*
X733D02*
X740D01*
X756D02*
X763D01*
X779D02*
X786D01*
X840D02*
X847D01*
X856D02*
X863D01*
X891D02*
X902D01*
X973D02*
X980D01*
X1014D02*
X1021D01*
X507Y418D02*
X514D01*
X595D02*
X603D01*
X611D02*
X619D01*
X637D02*
X665D01*
X717D02*
X725D01*
X733D02*
X740D01*
X756D02*
X763D01*
X779D02*
X786D01*
X840D02*
X848D01*
X856D02*
X863D01*
X892D02*
X903D01*
X973D02*
X980D01*
X1014D02*
X1021D01*
X507Y419D02*
X514D01*
X595D02*
X603D01*
X611D02*
X619D01*
X637D02*
X646D01*
X650D02*
X665D01*
X718D02*
X726D01*
X733D02*
X740D01*
X756D02*
X763D01*
X779D02*
X786D01*
X841D02*
X849D01*
X856D02*
X863D01*
X893D02*
X904D01*
X973D02*
X980D01*
X1014D02*
X1021D01*
X507Y420D02*
X514D01*
X595D02*
X604D01*
X610D02*
X618D01*
X636D02*
X645D01*
X653D02*
X664D01*
X719D02*
X726D01*
X733D02*
X740D01*
X756D02*
X763D01*
X779D02*
X786D01*
X841D02*
X849D01*
X856D02*
X863D01*
X894D02*
X905D01*
X973D02*
X980D01*
X1014D02*
X1021D01*
X507Y421D02*
X515D01*
X596D02*
X604D01*
X610D02*
X618D01*
X636D02*
X644D01*
X654D02*
X664D01*
X719D02*
X727D01*
X733D02*
X740D01*
X756D02*
X763D01*
X779D02*
X786D01*
X842D02*
X850D01*
X856D02*
X863D01*
X895D02*
X906D01*
X973D02*
X980D01*
X1014D02*
X1021D01*
X508Y422D02*
X515D01*
X596D02*
X604D01*
X610D02*
X618D01*
X635D02*
X644D01*
X655D02*
X664D01*
X720D02*
X728D01*
X733D02*
X740D01*
X756D02*
X763D01*
X779D02*
X786D01*
X842D02*
X850D01*
X856D02*
X863D01*
X897D02*
X906D01*
X973D02*
X980D01*
X1014D02*
X1021D01*
X508Y423D02*
X515D01*
X597D02*
X605D01*
X609D02*
X617D01*
X635D02*
X643D01*
X655D02*
X664D01*
X720D02*
X728D01*
X733D02*
X740D01*
X756D02*
X763D01*
X779D02*
X786D01*
X843D02*
X851D01*
X856D02*
X863D01*
X898D02*
X907D01*
X973D02*
X980D01*
X1014D02*
X1021D01*
X508Y424D02*
X515D01*
X597D02*
X605D01*
X609D02*
X617D01*
X635D02*
X643D01*
X656D02*
X664D01*
X721D02*
X729D01*
X733D02*
X740D01*
X756D02*
X763D01*
X779D02*
X786D01*
X844D02*
X852D01*
X856D02*
X863D01*
X899D02*
X907D01*
X973D02*
X980D01*
X1014D02*
X1021D01*
X508Y425D02*
X516D01*
X536D02*
X541D01*
X597D02*
X606D01*
X609D02*
X616D01*
X635D02*
X642D01*
X656D02*
X664D01*
X721D02*
X729D01*
X733D02*
X740D01*
X756D02*
X763D01*
X779D02*
X786D01*
X844D02*
X852D01*
X856D02*
X863D01*
X900D02*
X907D01*
X973D02*
X980D01*
X1014D02*
X1021D01*
X508Y426D02*
X516D01*
X535D02*
X542D01*
X598D02*
X606D01*
X608D02*
X616D01*
X635D02*
X642D01*
X657D02*
X664D01*
X722D02*
X730D01*
X733D02*
X740D01*
X756D02*
X764D01*
X778D02*
X786D01*
X845D02*
X853D01*
X856D02*
X863D01*
X900D02*
X908D01*
X973D02*
X980D01*
X1014D02*
X1021D01*
X509Y427D02*
X517D01*
X535D02*
X543D01*
X598D02*
X607D01*
X608D02*
X616D01*
X635D02*
X642D01*
X657D02*
X664D01*
X722D02*
X730D01*
X733D02*
X740D01*
X756D02*
X764D01*
X778D02*
X785D01*
X845D02*
X853D01*
X856D02*
X863D01*
X882D02*
X883D01*
X900D02*
X908D01*
X973D02*
X980D01*
X1014D02*
X1021D01*
X509Y428D02*
X517D01*
X534D02*
X543D01*
X598D02*
X607D01*
X607D02*
X615D01*
X635D02*
X642D01*
X656D02*
X663D01*
X723D02*
X731D01*
X733D02*
X740D01*
X757D02*
X764D01*
X778D02*
X785D01*
X846D02*
X854D01*
X856D02*
X863D01*
X880D02*
X885D01*
X901D02*
X908D01*
X973D02*
X980D01*
X1014D02*
X1021D01*
X510Y429D02*
X518D01*
X534D02*
X543D01*
X599D02*
X615D01*
X635D02*
X642D01*
X656D02*
X663D01*
X724D02*
X732D01*
X733D02*
X740D01*
X757D02*
X764D01*
X778D02*
X785D01*
X846D02*
X854D01*
X856D02*
X863D01*
X879D02*
X886D01*
X901D02*
X908D01*
X973D02*
X980D01*
X1014D02*
X1021D01*
X510Y430D02*
X520D01*
X533D02*
X543D01*
X599D02*
X614D01*
X635D02*
X643D01*
X655D02*
X663D01*
X724D02*
X732D01*
X733D02*
X740D01*
X757D02*
X765D01*
X777D02*
X785D01*
X847D02*
X855D01*
X856D02*
X863D01*
X879D02*
X886D01*
X900D02*
X908D01*
X973D02*
X980D01*
X1014D02*
X1021D01*
X511Y430D02*
X523D01*
X531D02*
X543D01*
X592D02*
X614D01*
X635D02*
X643D01*
X655D02*
X663D01*
X725D02*
X733D01*
X733D02*
X740D01*
X757D02*
X765D01*
X777D02*
X784D01*
X848D02*
X856D01*
X856D02*
X863D01*
X879D02*
X887D01*
X900D02*
X908D01*
X964D02*
X966D01*
X973D02*
X980D01*
X1005D02*
X1007D01*
X1014D02*
X1021D01*
X511Y431D02*
X543D01*
X591D02*
X614D01*
X636D02*
X644D01*
X654D02*
X662D01*
X725D02*
X740D01*
X758D02*
X766D01*
X776D02*
X784D01*
X848D02*
X863D01*
X879D02*
X887D01*
X900D02*
X908D01*
X962D02*
X969D01*
X973D02*
X980D01*
X1002D02*
X1010D01*
X1014D02*
X1021D01*
X512Y432D02*
X543D01*
X590D02*
X613D01*
X636D02*
X645D01*
X654D02*
X662D01*
X726D02*
X740D01*
X758D02*
X767D01*
X775D02*
X784D01*
X849D02*
X863D01*
X880D02*
X888D01*
X899D02*
X907D01*
X961D02*
X971D01*
X973D02*
X980D01*
X1002D02*
X1012D01*
X1014D02*
X1021D01*
X513Y433D02*
X543D01*
X590D02*
X613D01*
X637D02*
X645D01*
X652D02*
X662D01*
X726D02*
X740D01*
X759D02*
X768D01*
X774D02*
X783D01*
X849D02*
X863D01*
X880D02*
X890D01*
X897D02*
X907D01*
X961D02*
X980D01*
X1002D02*
X1021D01*
X514Y434D02*
X542D01*
X590D02*
X613D01*
X637D02*
X648D01*
X649D02*
X661D01*
X727D02*
X740D01*
X759D02*
X770D01*
X772D02*
X782D01*
X850D02*
X863D01*
X880D02*
X893D01*
X894D02*
X907D01*
X961D02*
X980D01*
X1002D02*
X1021D01*
X515Y435D02*
X542D01*
X590D02*
X612D01*
X638D02*
X661D01*
X728D02*
X740D01*
X760D02*
X782D01*
X850D02*
X863D01*
X881D02*
X906D01*
X961D02*
X980D01*
X1002D02*
X1021D01*
X517Y436D02*
X534D01*
X536D02*
X542D01*
X591D02*
X612D01*
X638D02*
X660D01*
X728D02*
X740D01*
X761D02*
X781D01*
X851D02*
X863D01*
X882D02*
X905D01*
X962D02*
X980D01*
X1003D02*
X1021D01*
X519Y437D02*
X532D01*
X538D02*
X541D01*
X591D02*
X611D01*
X639D02*
X659D01*
X729D02*
X740D01*
X762D02*
X780D01*
X851D02*
X863D01*
X882D02*
X904D01*
X963D02*
X980D01*
X1004D02*
X1021D01*
X524Y438D02*
X528D01*
X640D02*
X658D01*
X729D02*
X740D01*
X763D02*
X780D01*
X852D02*
X863D01*
X883D02*
X903D01*
X966D02*
X980D01*
X1007D02*
X1021D01*
X641Y439D02*
X657D01*
X730D02*
X740D01*
X764D02*
X779D01*
X853D02*
X863D01*
X885D02*
X902D01*
X970D02*
X980D01*
X1011D02*
X1021D01*
X643Y440D02*
X655D01*
X730D02*
X740D01*
X765D02*
X778D01*
X853D02*
X863D01*
X886D02*
X901D01*
X973D02*
X980D01*
X1014D02*
X1021D01*
X646Y441D02*
X653D01*
X768D02*
X775D01*
X890D02*
X899D01*
X977D02*
X980D01*
X1018D02*
X1021D01*
X1030Y538D02*
Y549D01*
X1031Y552*
X1034Y553*
X1037Y552*
X1038Y549*
Y538*
X1047*
X1051Y538*
X1052Y535*
X1051Y532*
X1047Y531*
X1038*
Y521*
X1037Y518*
X1034Y517*
X1031Y518*
X1030Y521*
Y531*
X1021*
X1017Y532*
X1016Y535*
X1017Y538*
X1021Y538*
X1030*
X1034Y517D02*
X1034D01*
X1031Y518D02*
X1037D01*
X1031Y519D02*
X1037D01*
X1031Y520D02*
X1037D01*
X1030Y521D02*
X1037D01*
X1030Y522D02*
X1038D01*
X1030Y523D02*
X1038D01*
X1030Y524D02*
X1038D01*
X1030Y525D02*
X1038D01*
X1030Y526D02*
X1038D01*
X1030Y526D02*
X1038D01*
X1030Y527D02*
X1038D01*
X1030Y528D02*
X1038D01*
X1030Y529D02*
X1038D01*
X1030Y530D02*
X1038D01*
X1030Y531D02*
X1038D01*
X1017Y532D02*
X1051D01*
X1017Y533D02*
X1051D01*
X1017Y534D02*
X1051D01*
X1016Y535D02*
X1052D01*
X1016Y536D02*
X1051D01*
X1017Y537D02*
X1051D01*
X1018Y538D02*
X1050D01*
X1030Y539D02*
X1038D01*
X1030Y540D02*
X1038D01*
X1030Y541D02*
X1038D01*
X1030Y541D02*
X1038D01*
X1030Y542D02*
X1038D01*
X1030Y543D02*
X1038D01*
X1030Y544D02*
X1038D01*
X1030Y545D02*
X1038D01*
X1030Y546D02*
X1038D01*
X1030Y547D02*
X1038D01*
X1030Y548D02*
X1038D01*
X1031Y549D02*
X1037D01*
X1031Y550D02*
X1037D01*
X1031Y551D02*
X1037D01*
X1031Y552D02*
X1037D01*
X1019Y632D02*
X1049D01*
Y625*
X1019*
Y632*
Y626D02*
X1049D01*
X1019Y627D02*
X1049D01*
X1019Y628D02*
X1049D01*
X1019Y629D02*
X1049D01*
X1019Y630D02*
X1049D01*
X1019Y630D02*
X1049D01*
X1019Y631D02*
X1049D01*
X1050Y736D02*
Y711D01*
X1053*
X1054Y710*
X1055Y708*
X1054Y704*
X1053Y704*
X1050*
X1035*
X1029Y705*
X1023Y708*
X1020Y712*
X1018Y717*
X1017Y723*
Y726*
Y730*
X1019Y734*
X1023Y738*
X1027Y741*
X1031Y743*
X1036*
X1050*
X1053*
X1054Y742*
X1055Y740*
X1054Y737*
X1053Y736*
X1050*
X1043D02*
X1036D01*
X1032*
X1030Y735*
X1026Y731*
X1024Y726*
Y723*
X1026Y717*
X1027Y714*
X1030Y712*
X1036Y711*
X1043*
Y736*
X986Y732D02*
X1001D01*
X1003Y736*
X1001*
X999*
X997Y737*
X997Y740*
X997Y742*
X999Y743*
X1001*
X1011*
X1013*
X1015Y742*
X1015Y740*
X1015Y737*
X1013Y736*
X1011*
X1001Y711*
X1006*
X1008*
X1010Y710*
X1011Y708*
X1010Y704*
X1008Y704*
X1006*
X990*
X976Y736*
X974*
X973Y737*
X971Y738*
Y740*
X972Y742*
X974Y743*
X976*
X986*
X988*
X990Y742*
X990Y740*
X990Y737*
X988Y736*
X986*
X984*
X986Y732*
X989Y725D02*
X993Y713D01*
X999Y725*
X989*
X989Y704D02*
X1010D01*
X1032D02*
X1054D01*
X989Y705D02*
X1010D01*
X1028D02*
X1054D01*
X988Y706D02*
X1010D01*
X1026D02*
X1055D01*
X988Y707D02*
X1011D01*
X1024D02*
X1055D01*
X988Y708D02*
X1011D01*
X1023D02*
X1055D01*
X987Y709D02*
X1010D01*
X1022D02*
X1054D01*
X987Y710D02*
X1010D01*
X1021D02*
X1054D01*
X986Y711D02*
X1001D01*
X1021D02*
X1035D01*
X1043D02*
X1050D01*
X986Y712D02*
X1002D01*
X1020D02*
X1031D01*
X1043D02*
X1050D01*
X986Y713D02*
X1002D01*
X1020D02*
X1029D01*
X1043D02*
X1050D01*
X985Y714D02*
X993D01*
X994D02*
X1002D01*
X1019D02*
X1027D01*
X1043D02*
X1050D01*
X985Y715D02*
X993D01*
X994D02*
X1003D01*
X1019D02*
X1027D01*
X1043D02*
X1050D01*
X985Y716D02*
X992D01*
X995D02*
X1003D01*
X1018D02*
X1026D01*
X1043D02*
X1050D01*
X984Y717D02*
X992D01*
X995D02*
X1004D01*
X1018D02*
X1026D01*
X1043D02*
X1050D01*
X984Y718D02*
X992D01*
X996D02*
X1004D01*
X1018D02*
X1026D01*
X1043D02*
X1050D01*
X983Y719D02*
X991D01*
X996D02*
X1004D01*
X1018D02*
X1025D01*
X1043D02*
X1050D01*
X983Y719D02*
X991D01*
X996D02*
X1005D01*
X1018D02*
X1025D01*
X1043D02*
X1050D01*
X983Y720D02*
X991D01*
X997D02*
X1005D01*
X1017D02*
X1025D01*
X1043D02*
X1050D01*
X982Y721D02*
X990D01*
X997D02*
X1005D01*
X1017D02*
X1025D01*
X1043D02*
X1050D01*
X982Y722D02*
X990D01*
X998D02*
X1006D01*
X1017D02*
X1024D01*
X1043D02*
X1050D01*
X981Y723D02*
X989D01*
X998D02*
X1006D01*
X1017D02*
X1024D01*
X1043D02*
X1050D01*
X981Y724D02*
X989D01*
X999D02*
X1006D01*
X1017D02*
X1024D01*
X1043D02*
X1050D01*
X981Y725D02*
X1007D01*
X1017D02*
X1024D01*
X1043D02*
X1050D01*
X980Y726D02*
X1007D01*
X1017D02*
X1024D01*
X1043D02*
X1050D01*
X980Y727D02*
X1007D01*
X1017D02*
X1025D01*
X1043D02*
X1050D01*
X979Y728D02*
X1008D01*
X1017D02*
X1025D01*
X1043D02*
X1050D01*
X979Y729D02*
X1008D01*
X1017D02*
X1025D01*
X1043D02*
X1050D01*
X979Y730D02*
X1008D01*
X1017D02*
X1025D01*
X1043D02*
X1050D01*
X978Y731D02*
X1009D01*
X1017D02*
X1026D01*
X1043D02*
X1050D01*
X978Y732D02*
X1009D01*
X1018D02*
X1026D01*
X1043D02*
X1050D01*
X978Y733D02*
X985D01*
X1002D02*
X1010D01*
X1018D02*
X1027D01*
X1043D02*
X1050D01*
X977Y734D02*
X985D01*
X1002D02*
X1010D01*
X1019D02*
X1028D01*
X1043D02*
X1050D01*
X977Y734D02*
X985D01*
X1002D02*
X1010D01*
X1019D02*
X1029D01*
X1043D02*
X1050D01*
X976Y735D02*
X984D01*
X1003D02*
X1011D01*
X1020D02*
X1030D01*
X1043D02*
X1050D01*
X973Y736D02*
X989D01*
X998D02*
X1014D01*
X1021D02*
X1053D01*
X972Y737D02*
X990D01*
X997D02*
X1015D01*
X1022D02*
X1054D01*
X972Y738D02*
X990D01*
X997D02*
X1015D01*
X1022D02*
X1054D01*
X971Y739D02*
X990D01*
X997D02*
X1015D01*
X1024D02*
X1055D01*
X971Y740D02*
X990D01*
X997D02*
X1015D01*
X1025D02*
X1055D01*
X972Y741D02*
X990D01*
X997D02*
X1015D01*
X1027D02*
X1054D01*
X972Y742D02*
X990D01*
X997D02*
X1015D01*
X1029D02*
X1054D01*
X973Y743D02*
X988D01*
X999D02*
X1013D01*
X1031D02*
X1053D01*
X1024Y801D02*
X1023Y799D01*
X1021Y798*
X1018Y799*
X1017Y803*
Y808*
X1018Y812*
X1020Y812*
X1023Y812*
X1024Y809*
X1025Y808*
X1029Y805*
X1034Y804*
X1039Y806*
X1044Y810*
X1045Y813*
X1045Y816*
Y820*
X1045Y825*
X1042Y828*
X1038Y830*
X1032Y831*
X1026Y830*
X1023Y828*
X1021Y827*
X1019*
X1017Y827*
X1016Y830*
Y831*
X1018Y833*
X1023Y837*
X1027Y838*
X1032Y838*
X1038Y838*
X1043Y836*
X1047Y834*
X1049Y830*
X1052Y826*
X1053Y821*
Y816*
X1052Y812*
X1050Y807*
X1047Y803*
X1043Y800*
X1039Y798*
X1034Y797*
X1029Y798*
X1024Y801*
X996Y805D02*
Y830D01*
X982*
Y824*
X981Y820*
X978Y819*
X975Y820*
X975Y824*
Y838*
X1007*
X1009*
X1011Y837*
X1012Y834*
X1011Y831*
X1009Y830*
X1007*
X1003*
Y805*
X1007*
X1009*
X1011Y804*
X1012Y802*
X1011Y799*
X1009Y798*
X1007*
X992*
X990*
X988Y799*
X987Y802*
X988Y804*
X990Y805*
X992*
X996*
X989Y798D02*
X1009D01*
X1021D02*
X1021D01*
X1029D02*
X1039D01*
X988Y799D02*
X1011D01*
X1018D02*
X1023D01*
X1027D02*
X1042D01*
X988Y800D02*
X1011D01*
X1018D02*
X1024D01*
X1025D02*
X1043D01*
X987Y801D02*
X1011D01*
X1017D02*
X1045D01*
X987Y802D02*
X1012D01*
X1017D02*
X1046D01*
X987Y803D02*
X1011D01*
X1017D02*
X1047D01*
X988Y804D02*
X1011D01*
X1017D02*
X1048D01*
X989Y805D02*
X1010D01*
X1017D02*
X1032D01*
X1035D02*
X1048D01*
X996Y806D02*
X1003D01*
X1017D02*
X1028D01*
X1038D02*
X1049D01*
X996Y807D02*
X1003D01*
X1017D02*
X1027D01*
X1040D02*
X1050D01*
X996Y808D02*
X1003D01*
X1017D02*
X1025D01*
X1041D02*
X1050D01*
X996Y809D02*
X1003D01*
X1017D02*
X1025D01*
X1042D02*
X1051D01*
X996Y809D02*
X1003D01*
X1017D02*
X1024D01*
X1043D02*
X1051D01*
X996Y810D02*
X1003D01*
X1018D02*
X1023D01*
X1044D02*
X1051D01*
X996Y811D02*
X1003D01*
X1018D02*
X1023D01*
X1044D02*
X1052D01*
X996Y812D02*
X1003D01*
X1020D02*
X1021D01*
X1044D02*
X1052D01*
X996Y813D02*
X1003D01*
X1045D02*
X1052D01*
X996Y814D02*
X1003D01*
X1045D02*
X1052D01*
X996Y815D02*
X1003D01*
X1045D02*
X1052D01*
X996Y816D02*
X1003D01*
X1045D02*
X1052D01*
X996Y817D02*
X1003D01*
X1045D02*
X1053D01*
X996Y818D02*
X1003D01*
X1045D02*
X1053D01*
X996Y819D02*
X1003D01*
X1045D02*
X1053D01*
X977Y820D02*
X979D01*
X996D02*
X1003D01*
X1045D02*
X1053D01*
X975Y821D02*
X981D01*
X996D02*
X1003D01*
X1045D02*
X1053D01*
X975Y822D02*
X981D01*
X996D02*
X1003D01*
X1045D02*
X1052D01*
X975Y823D02*
X981D01*
X996D02*
X1003D01*
X1045D02*
X1052D01*
X975Y823D02*
X982D01*
X996D02*
X1003D01*
X1045D02*
X1052D01*
X975Y824D02*
X982D01*
X996D02*
X1003D01*
X1045D02*
X1052D01*
X975Y825D02*
X982D01*
X996D02*
X1003D01*
X1044D02*
X1052D01*
X975Y826D02*
X982D01*
X996D02*
X1003D01*
X1044D02*
X1051D01*
X975Y827D02*
X982D01*
X996D02*
X1003D01*
X1017D02*
X1022D01*
X1043D02*
X1051D01*
X975Y828D02*
X982D01*
X996D02*
X1003D01*
X1017D02*
X1023D01*
X1042D02*
X1050D01*
X975Y829D02*
X982D01*
X996D02*
X1003D01*
X1016D02*
X1024D01*
X1040D02*
X1050D01*
X975Y830D02*
X982D01*
X996D02*
X1003D01*
X1016D02*
X1025D01*
X1038D02*
X1049D01*
X975Y831D02*
X1010D01*
X1016D02*
X1030D01*
X1034D02*
X1049D01*
X975Y832D02*
X1011D01*
X1017D02*
X1048D01*
X975Y833D02*
X1011D01*
X1018D02*
X1047D01*
X975Y834D02*
X1011D01*
X1019D02*
X1047D01*
X975Y835D02*
X1011D01*
X1020D02*
X1045D01*
X975Y836D02*
X1011D01*
X1021D02*
X1044D01*
X975Y837D02*
X1011D01*
X1022D02*
X1041D01*
X1027Y838D02*
X1038D01*
X1168Y313D02*
Y305D01*
X1171*
X1173*
X1175Y304*
X1175Y301*
X1175Y299*
X1173Y298*
X1171*
X1160*
X1158*
X1156Y299*
X1156Y301*
X1156Y304*
X1158Y305*
X1160*
X1161*
Y330*
X1160*
X1158*
X1156Y331*
X1156Y334*
X1156Y337*
X1158Y338*
X1160*
X1176*
X1182Y337*
X1187Y334*
X1190Y330*
X1191Y326*
X1190Y323*
X1190Y320*
X1187Y317*
X1183Y315*
X1188Y311*
X1190Y308*
X1193Y305*
X1195*
X1196Y304*
X1197Y301*
X1197Y299*
X1195Y298*
X1193*
X1189*
X1185Y304*
X1181Y308*
X1178Y312*
X1175Y313*
X1168*
Y320D02*
X1174D01*
X1178Y321*
X1182Y322*
X1183Y323*
X1184Y326*
X1183Y327*
X1182Y329*
X1179Y330*
X1176Y330*
X1168*
Y320*
X1222Y298D02*
Y302D01*
X1216Y298*
X1211Y297*
X1206Y298*
X1202Y301*
X1200Y303*
X1199Y307*
X1200Y311*
X1203Y314*
X1208Y317*
X1215Y318*
X1222Y317*
Y319*
X1220Y321*
X1219Y322*
X1215*
X1212*
X1208Y320*
X1205*
X1203Y321*
X1202Y323*
Y325*
X1204Y327*
X1206Y327*
X1211Y328*
X1215Y329*
X1221Y328*
X1226Y327*
X1228Y323*
X1229Y319*
Y305*
X1230*
X1232*
X1234Y304*
X1234Y301*
X1234Y299*
X1232Y298*
X1230*
X1222*
Y310D02*
X1215Y311D01*
X1211Y310*
X1208Y309*
X1207Y308*
X1206Y307*
X1207Y305*
X1212Y304*
X1216Y305*
X1222Y308*
Y310*
X1247Y328D02*
Y326D01*
X1250Y328*
X1253Y329*
X1256Y328*
X1259Y326*
X1263Y328*
X1266Y329*
X1270Y328*
X1272Y327*
X1275Y324*
X1275Y320*
Y305*
X1278*
X1279Y304*
X1280Y301*
X1279Y299*
X1278Y298*
X1275*
X1268*
Y319*
X1267Y321*
X1266Y322*
X1264Y321*
X1261Y318*
Y305*
X1264*
X1265Y304*
X1266Y301*
X1265Y299*
X1264Y298*
X1261*
X1254*
Y319*
X1253Y321*
X1252Y322*
X1249Y321*
X1247Y318*
Y305*
X1249*
X1251Y304*
X1252Y301*
X1251Y299*
X1249Y298*
X1247*
X1240*
X1238*
X1236Y299*
X1235Y301*
X1236Y304*
X1238Y305*
X1240*
Y321*
X1238*
X1236Y322*
X1235Y324*
X1236Y327*
X1238Y328*
X1240*
X1247*
X1290Y302D02*
Y293D01*
X1293*
X1296*
X1297Y292*
X1298Y289*
X1297Y286*
X1296Y286*
X1293*
X1282*
X1279*
X1278Y286*
X1277Y289*
X1278Y292*
X1279Y293*
X1282*
X1282*
Y321*
X1282*
X1279*
X1278Y322*
X1277Y324*
X1278Y327*
X1279Y328*
X1282*
X1290*
Y325*
X1294Y328*
X1300Y329*
X1306Y327*
X1312Y324*
X1315Y319*
X1316Y313*
X1315Y307*
X1311Y302*
X1305Y299*
X1300Y298*
X1294Y299*
X1290Y302*
X1309Y313D02*
X1308Y316D01*
X1304Y320*
X1300Y322*
X1295Y321*
X1292Y318*
X1290Y315*
X1290Y313*
X1290Y310*
X1293Y308*
X1296Y306*
X1300Y305*
X1303Y306*
X1306Y308*
X1308Y310*
X1309Y313*
X1346Y319D02*
X1343Y321D01*
X1339Y322*
X1333Y320*
X1332Y319*
X1334Y318*
X1335Y317*
X1338*
X1344Y316*
X1348Y315*
X1351Y314*
X1353Y312*
X1354Y309*
X1355Y307*
X1354Y304*
X1352Y301*
X1346Y298*
X1340Y297*
X1334*
X1330Y299*
X1328Y298*
X1327*
X1324Y299*
X1323Y303*
Y304*
X1324Y308*
X1327Y309*
X1329Y308*
X1330Y307*
X1334Y305*
X1339Y304*
X1344*
X1346Y306*
X1348Y307*
X1347Y308*
X1346Y309*
X1343Y310*
X1339Y311*
X1332Y312*
X1328Y314*
X1326Y316*
X1325Y319*
X1326Y323*
X1328Y326*
X1333Y328*
X1339Y329*
X1344Y328*
X1348Y327*
X1349Y328*
X1350*
X1353Y327*
X1353Y323*
Y322*
Y319*
X1353Y319*
X1352Y317*
X1350*
X1348Y318*
X1346Y319*
X1278Y286D02*
X1297D01*
X1277Y287D02*
X1298D01*
X1277Y288D02*
X1298D01*
X1277Y289D02*
X1298D01*
X1277Y290D02*
X1298D01*
X1278Y291D02*
X1298D01*
X1278Y292D02*
X1297D01*
X1282Y293D02*
X1290D01*
X1282Y294D02*
X1290D01*
X1282Y295D02*
X1290D01*
X1282Y296D02*
X1290D01*
X1282Y297D02*
X1290D01*
X1209Y298D02*
X1213D01*
X1282D02*
X1290D01*
X1334D02*
X1342D01*
X1157Y299D02*
X1174D01*
X1188D02*
X1196D01*
X1205D02*
X1217D01*
X1222D02*
X1233D01*
X1237D02*
X1250D01*
X1254D02*
X1264D01*
X1268D02*
X1279D01*
X1282D02*
X1290D01*
X1297D02*
X1303D01*
X1326D02*
X1329D01*
X1331D02*
X1347D01*
X1156Y300D02*
X1175D01*
X1188D02*
X1197D01*
X1204D02*
X1218D01*
X1222D02*
X1234D01*
X1236D02*
X1251D01*
X1254D02*
X1265D01*
X1268D02*
X1279D01*
X1282D02*
X1290D01*
X1293D02*
X1306D01*
X1324D02*
X1349D01*
X1156Y300D02*
X1175D01*
X1187D02*
X1197D01*
X1202D02*
X1220D01*
X1222D02*
X1234D01*
X1235D02*
X1251D01*
X1254D02*
X1266D01*
X1268D02*
X1280D01*
X1282D02*
X1290D01*
X1292D02*
X1308D01*
X1324D02*
X1352D01*
X1156Y301D02*
X1175D01*
X1186D02*
X1197D01*
X1201D02*
X1221D01*
X1222D02*
X1234D01*
X1235D02*
X1252D01*
X1254D02*
X1266D01*
X1268D02*
X1280D01*
X1282D02*
X1290D01*
X1291D02*
X1310D01*
X1324D02*
X1352D01*
X1156Y302D02*
X1175D01*
X1186D02*
X1197D01*
X1200D02*
X1234D01*
X1235D02*
X1251D01*
X1254D02*
X1266D01*
X1268D02*
X1280D01*
X1282D02*
X1311D01*
X1323D02*
X1353D01*
X1156Y303D02*
X1175D01*
X1185D02*
X1196D01*
X1200D02*
X1234D01*
X1236D02*
X1251D01*
X1254D02*
X1265D01*
X1268D02*
X1280D01*
X1282D02*
X1312D01*
X1323D02*
X1354D01*
X1156Y304D02*
X1175D01*
X1184D02*
X1196D01*
X1199D02*
X1234D01*
X1236D02*
X1251D01*
X1254D02*
X1265D01*
X1268D02*
X1279D01*
X1282D02*
X1313D01*
X1323D02*
X1354D01*
X1158Y305D02*
X1173D01*
X1184D02*
X1195D01*
X1199D02*
X1207D01*
X1216D02*
X1232D01*
X1237D02*
X1250D01*
X1254D02*
X1264D01*
X1268D02*
X1278D01*
X1282D02*
X1313D01*
X1324D02*
X1335D01*
X1345D02*
X1354D01*
X1161Y306D02*
X1168D01*
X1183D02*
X1192D01*
X1199D02*
X1206D01*
X1218D02*
X1229D01*
X1240D02*
X1247D01*
X1254D02*
X1261D01*
X1268D02*
X1275D01*
X1282D02*
X1296D01*
X1303D02*
X1314D01*
X1324D02*
X1332D01*
X1346D02*
X1355D01*
X1161Y307D02*
X1168D01*
X1182D02*
X1191D01*
X1199D02*
X1206D01*
X1220D02*
X1229D01*
X1240D02*
X1247D01*
X1254D02*
X1261D01*
X1268D02*
X1275D01*
X1282D02*
X1294D01*
X1305D02*
X1315D01*
X1324D02*
X1330D01*
X1348D02*
X1355D01*
X1161Y308D02*
X1168D01*
X1181D02*
X1191D01*
X1199D02*
X1207D01*
X1222D02*
X1229D01*
X1240D02*
X1247D01*
X1254D02*
X1261D01*
X1268D02*
X1275D01*
X1282D02*
X1292D01*
X1306D02*
X1315D01*
X1324D02*
X1329D01*
X1347D02*
X1354D01*
X1161Y309D02*
X1168D01*
X1180D02*
X1190D01*
X1199D02*
X1207D01*
X1222D02*
X1229D01*
X1240D02*
X1247D01*
X1254D02*
X1261D01*
X1268D02*
X1275D01*
X1282D02*
X1291D01*
X1307D02*
X1315D01*
X1326D02*
X1328D01*
X1346D02*
X1354D01*
X1161Y310D02*
X1168D01*
X1179D02*
X1189D01*
X1200D02*
X1210D01*
X1222D02*
X1229D01*
X1240D02*
X1247D01*
X1254D02*
X1261D01*
X1268D02*
X1275D01*
X1282D02*
X1290D01*
X1308D02*
X1315D01*
X1344D02*
X1354D01*
X1161Y311D02*
X1168D01*
X1178D02*
X1188D01*
X1200D02*
X1229D01*
X1240D02*
X1247D01*
X1254D02*
X1261D01*
X1268D02*
X1275D01*
X1282D02*
X1290D01*
X1309D02*
X1316D01*
X1339D02*
X1354D01*
X1161Y312D02*
X1168D01*
X1177D02*
X1187D01*
X1201D02*
X1229D01*
X1240D02*
X1247D01*
X1254D02*
X1261D01*
X1268D02*
X1275D01*
X1282D02*
X1290D01*
X1309D02*
X1316D01*
X1332D02*
X1353D01*
X1161Y313D02*
X1168D01*
X1176D02*
X1186D01*
X1202D02*
X1229D01*
X1240D02*
X1247D01*
X1254D02*
X1261D01*
X1268D02*
X1275D01*
X1282D02*
X1290D01*
X1309D02*
X1316D01*
X1330D02*
X1352D01*
X1161Y314D02*
X1185D01*
X1203D02*
X1229D01*
X1240D02*
X1247D01*
X1254D02*
X1261D01*
X1268D02*
X1275D01*
X1282D02*
X1290D01*
X1309D02*
X1316D01*
X1329D02*
X1351D01*
X1161Y315D02*
X1184D01*
X1204D02*
X1229D01*
X1240D02*
X1247D01*
X1254D02*
X1261D01*
X1268D02*
X1275D01*
X1282D02*
X1290D01*
X1309D02*
X1316D01*
X1327D02*
X1350D01*
X1161Y315D02*
X1183D01*
X1206D02*
X1229D01*
X1240D02*
X1247D01*
X1254D02*
X1261D01*
X1268D02*
X1275D01*
X1282D02*
X1290D01*
X1309D02*
X1316D01*
X1327D02*
X1348D01*
X1161Y316D02*
X1186D01*
X1207D02*
X1229D01*
X1240D02*
X1247D01*
X1254D02*
X1261D01*
X1268D02*
X1275D01*
X1282D02*
X1291D01*
X1308D02*
X1315D01*
X1326D02*
X1343D01*
X1161Y317D02*
X1187D01*
X1211D02*
X1219D01*
X1222D02*
X1229D01*
X1240D02*
X1247D01*
X1254D02*
X1261D01*
X1268D02*
X1275D01*
X1282D02*
X1292D01*
X1307D02*
X1315D01*
X1325D02*
X1335D01*
X1349D02*
X1352D01*
X1161Y318D02*
X1188D01*
X1222D02*
X1229D01*
X1240D02*
X1247D01*
X1254D02*
X1262D01*
X1268D02*
X1275D01*
X1282D02*
X1292D01*
X1306D02*
X1315D01*
X1325D02*
X1333D01*
X1347D02*
X1352D01*
X1161Y319D02*
X1189D01*
X1221D02*
X1229D01*
X1240D02*
X1248D01*
X1254D02*
X1263D01*
X1268D02*
X1275D01*
X1282D02*
X1293D01*
X1305D02*
X1314D01*
X1325D02*
X1332D01*
X1346D02*
X1353D01*
X1161Y320D02*
X1189D01*
X1221D02*
X1229D01*
X1240D02*
X1249D01*
X1254D02*
X1263D01*
X1268D02*
X1275D01*
X1282D02*
X1294D01*
X1305D02*
X1314D01*
X1325D02*
X1333D01*
X1345D02*
X1353D01*
X1161Y321D02*
X1168D01*
X1179D02*
X1190D01*
X1203D02*
X1211D01*
X1220D02*
X1228D01*
X1237D02*
X1250D01*
X1253D02*
X1265D01*
X1267D02*
X1275D01*
X1279D02*
X1296D01*
X1302D02*
X1313D01*
X1325D02*
X1336D01*
X1343D02*
X1353D01*
X1161Y322D02*
X1168D01*
X1182D02*
X1190D01*
X1203D02*
X1228D01*
X1236D02*
X1275D01*
X1278D02*
X1313D01*
X1326D02*
X1353D01*
X1161Y323D02*
X1168D01*
X1183D02*
X1190D01*
X1202D02*
X1228D01*
X1236D02*
X1275D01*
X1277D02*
X1312D01*
X1326D02*
X1353D01*
X1161Y324D02*
X1168D01*
X1183D02*
X1191D01*
X1202D02*
X1227D01*
X1235D02*
X1275D01*
X1277D02*
X1312D01*
X1327D02*
X1353D01*
X1161Y325D02*
X1168D01*
X1184D02*
X1191D01*
X1202D02*
X1227D01*
X1235D02*
X1274D01*
X1277D02*
X1310D01*
X1327D02*
X1353D01*
X1161Y326D02*
X1168D01*
X1184D02*
X1191D01*
X1203D02*
X1226D01*
X1236D02*
X1247D01*
X1247D02*
X1259D01*
X1259D02*
X1273D01*
X1277D02*
X1290D01*
X1291D02*
X1309D01*
X1328D02*
X1353D01*
X1161Y327D02*
X1168D01*
X1184D02*
X1191D01*
X1204D02*
X1225D01*
X1236D02*
X1247D01*
X1248D02*
X1258D01*
X1260D02*
X1272D01*
X1278D02*
X1290D01*
X1292D02*
X1307D01*
X1330D02*
X1353D01*
X1161Y328D02*
X1168D01*
X1183D02*
X1191D01*
X1208D02*
X1222D01*
X1237D02*
X1247D01*
X1250D02*
X1257D01*
X1262D02*
X1270D01*
X1278D02*
X1290D01*
X1294D02*
X1305D01*
X1332D02*
X1346D01*
X1348D02*
X1351D01*
X1161Y329D02*
X1168D01*
X1182D02*
X1191D01*
X1214D02*
X1217D01*
X1252D02*
X1254D01*
X1265D02*
X1267D01*
X1298D02*
X1301D01*
X1337D02*
X1341D01*
X1161Y330D02*
X1168D01*
X1180D02*
X1190D01*
X1158Y330D02*
X1190D01*
X1156Y331D02*
X1189D01*
X1156Y332D02*
X1188D01*
X1156Y333D02*
X1187D01*
X1156Y334D02*
X1186D01*
X1156Y335D02*
X1185D01*
X1156Y336D02*
X1183D01*
X1157Y337D02*
X1180D01*
X1183Y215D02*
X1167D01*
X1166Y211*
X1167*
X1170*
X1171Y210*
X1172Y207*
X1171Y204*
X1170Y204*
X1167*
X1158*
X1156*
X1154Y204*
X1153Y207*
X1154Y210*
X1156Y211*
X1158*
X1167Y236*
X1163*
X1160*
X1159Y237*
X1158Y239*
X1159Y242*
X1160Y243*
X1163*
X1179*
X1193Y211*
X1195*
X1196Y210*
X1197Y208*
Y207*
X1197Y204*
X1195Y204*
X1193*
X1183*
X1181*
X1179Y204*
X1178Y207*
X1179Y210*
X1181Y211*
X1183*
X1185*
X1183Y215*
X1180Y222D02*
X1175Y234D01*
X1170Y222*
X1180*
X1230Y234D02*
Y211D01*
X1233*
X1234Y210*
X1235Y207*
X1234Y204*
X1233Y204*
X1230*
X1223*
Y206*
X1218Y204*
X1213Y203*
X1207Y204*
X1203Y208*
X1202Y212*
Y227*
X1201*
X1199*
X1197Y227*
X1197Y230*
X1197Y233*
X1199Y234*
X1201*
X1209*
Y214*
X1210Y211*
X1213Y210*
X1218Y211*
X1223Y214*
Y227*
X1221*
X1219*
X1217Y227*
X1216Y230*
X1217Y233*
X1219Y234*
X1221*
X1230*
X1262Y219D02*
X1271Y211D01*
X1275Y210*
X1276Y207*
X1275Y204*
X1271Y204*
X1264*
X1260Y204*
X1260Y208*
X1260Y209*
X1262Y211*
X1257Y215*
X1252Y211*
X1254Y209*
X1255Y208*
X1254Y204*
X1250Y204*
X1243*
X1239Y204*
X1238Y207*
X1239Y210*
X1243Y211*
X1252Y219*
X1244Y227*
X1241Y227*
X1240Y230*
X1241Y233*
X1245Y234*
X1250*
X1254Y233*
X1255Y230*
Y228*
X1253Y227*
X1257Y223*
X1261Y227*
X1260Y228*
X1260Y230*
X1260Y233*
X1264Y234*
X1270*
X1274Y233*
X1275Y230*
X1274Y227*
X1271Y227*
X1262Y219*
X1292Y211D02*
X1307D01*
X1309Y212*
X1312Y211*
X1312Y207*
Y204*
X1282*
Y212*
X1290Y218*
X1296Y223*
X1301Y227*
X1304Y230*
X1304Y232*
X1305Y234*
X1304Y236*
X1303Y238*
X1301Y239*
X1298Y240*
X1295Y239*
X1292Y238*
X1290Y234*
X1289Y233*
X1287Y232*
X1284Y233*
X1283Y235*
X1284Y238*
X1285Y240*
X1287Y243*
X1290Y245*
X1294Y246*
X1298Y247*
X1304Y246*
X1308Y243*
X1312Y239*
X1312Y234*
X1312Y229*
X1309Y226*
X1305Y222*
X1304Y220*
X1301Y218*
X1297Y215*
X1292Y211*
X1213Y203D02*
X1214D01*
X1155Y204D02*
X1170D01*
X1180D02*
X1196D01*
X1209D02*
X1219D01*
X1223D02*
X1233D01*
X1242D02*
X1252D01*
X1263D02*
X1273D01*
X1282D02*
X1312D01*
X1154Y205D02*
X1172D01*
X1179D02*
X1197D01*
X1206D02*
X1221D01*
X1223D02*
X1235D01*
X1239D02*
X1254D01*
X1260D02*
X1275D01*
X1282D02*
X1312D01*
X1154Y206D02*
X1172D01*
X1179D02*
X1197D01*
X1205D02*
X1223D01*
X1223D02*
X1235D01*
X1239D02*
X1254D01*
X1260D02*
X1276D01*
X1282D02*
X1312D01*
X1153Y207D02*
X1172D01*
X1179D02*
X1197D01*
X1204D02*
X1235D01*
X1238D02*
X1255D01*
X1260D02*
X1276D01*
X1282D02*
X1312D01*
X1154Y208D02*
X1172D01*
X1179D02*
X1197D01*
X1203D02*
X1235D01*
X1239D02*
X1255D01*
X1260D02*
X1276D01*
X1282D02*
X1312D01*
X1154Y209D02*
X1172D01*
X1179D02*
X1197D01*
X1203D02*
X1235D01*
X1239D02*
X1254D01*
X1260D02*
X1276D01*
X1282D02*
X1312D01*
X1154Y210D02*
X1171D01*
X1179D02*
X1196D01*
X1203D02*
X1234D01*
X1239D02*
X1253D01*
X1261D02*
X1275D01*
X1282D02*
X1312D01*
X1155Y211D02*
X1170D01*
X1180D02*
X1195D01*
X1202D02*
X1211D01*
X1216D02*
X1233D01*
X1242D02*
X1252D01*
X1262D02*
X1273D01*
X1282D02*
X1312D01*
X1158Y211D02*
X1166D01*
X1185D02*
X1192D01*
X1202D02*
X1210D01*
X1219D02*
X1230D01*
X1244D02*
X1253D01*
X1261D02*
X1271D01*
X1282D02*
X1293D01*
X1309D02*
X1309D01*
X1159Y212D02*
X1167D01*
X1184D02*
X1192D01*
X1202D02*
X1210D01*
X1221D02*
X1230D01*
X1245D02*
X1254D01*
X1260D02*
X1270D01*
X1283D02*
X1294D01*
X1159Y213D02*
X1167D01*
X1184D02*
X1192D01*
X1202D02*
X1209D01*
X1222D02*
X1230D01*
X1246D02*
X1255D01*
X1259D02*
X1269D01*
X1284D02*
X1295D01*
X1159Y214D02*
X1167D01*
X1183D02*
X1191D01*
X1202D02*
X1209D01*
X1223D02*
X1230D01*
X1247D02*
X1256D01*
X1258D02*
X1268D01*
X1285D02*
X1296D01*
X1160Y215D02*
X1191D01*
X1202D02*
X1209D01*
X1223D02*
X1230D01*
X1248D02*
X1257D01*
X1258D02*
X1267D01*
X1286D02*
X1297D01*
X1160Y216D02*
X1190D01*
X1202D02*
X1209D01*
X1223D02*
X1230D01*
X1249D02*
X1266D01*
X1287D02*
X1298D01*
X1160Y217D02*
X1190D01*
X1202D02*
X1209D01*
X1223D02*
X1230D01*
X1250D02*
X1265D01*
X1289D02*
X1300D01*
X1161Y218D02*
X1190D01*
X1202D02*
X1209D01*
X1223D02*
X1230D01*
X1251D02*
X1263D01*
X1290D02*
X1301D01*
X1161Y219D02*
X1189D01*
X1202D02*
X1209D01*
X1223D02*
X1230D01*
X1252D02*
X1262D01*
X1291D02*
X1302D01*
X1161Y220D02*
X1189D01*
X1202D02*
X1209D01*
X1223D02*
X1230D01*
X1252D02*
X1263D01*
X1292D02*
X1303D01*
X1162Y221D02*
X1188D01*
X1202D02*
X1209D01*
X1223D02*
X1230D01*
X1251D02*
X1264D01*
X1293D02*
X1304D01*
X1162Y222D02*
X1170D01*
X1180D02*
X1188D01*
X1202D02*
X1209D01*
X1223D02*
X1230D01*
X1250D02*
X1265D01*
X1294D02*
X1305D01*
X1162Y223D02*
X1170D01*
X1180D02*
X1188D01*
X1202D02*
X1209D01*
X1223D02*
X1230D01*
X1248D02*
X1266D01*
X1295D02*
X1306D01*
X1163Y224D02*
X1171D01*
X1179D02*
X1187D01*
X1202D02*
X1209D01*
X1223D02*
X1230D01*
X1247D02*
X1257D01*
X1258D02*
X1267D01*
X1296D02*
X1307D01*
X1163Y225D02*
X1171D01*
X1179D02*
X1187D01*
X1202D02*
X1209D01*
X1223D02*
X1230D01*
X1246D02*
X1256D01*
X1259D02*
X1268D01*
X1297D02*
X1308D01*
X1164Y226D02*
X1172D01*
X1179D02*
X1187D01*
X1202D02*
X1209D01*
X1223D02*
X1230D01*
X1245D02*
X1255D01*
X1260D02*
X1269D01*
X1298D02*
X1309D01*
X1164Y226D02*
X1172D01*
X1178D02*
X1186D01*
X1202D02*
X1209D01*
X1223D02*
X1230D01*
X1244D02*
X1253D01*
X1261D02*
X1271D01*
X1300D02*
X1310D01*
X1164Y227D02*
X1172D01*
X1178D02*
X1186D01*
X1197D02*
X1209D01*
X1217D02*
X1230D01*
X1241D02*
X1254D01*
X1261D02*
X1274D01*
X1301D02*
X1310D01*
X1165Y228D02*
X1173D01*
X1177D02*
X1185D01*
X1197D02*
X1209D01*
X1217D02*
X1230D01*
X1240D02*
X1255D01*
X1260D02*
X1274D01*
X1302D02*
X1311D01*
X1165Y229D02*
X1173D01*
X1177D02*
X1185D01*
X1197D02*
X1209D01*
X1216D02*
X1230D01*
X1240D02*
X1255D01*
X1260D02*
X1274D01*
X1303D02*
X1312D01*
X1165Y230D02*
X1174D01*
X1177D02*
X1185D01*
X1197D02*
X1209D01*
X1216D02*
X1230D01*
X1240D02*
X1255D01*
X1260D02*
X1274D01*
X1304D02*
X1312D01*
X1166Y231D02*
X1174D01*
X1176D02*
X1184D01*
X1197D02*
X1209D01*
X1217D02*
X1230D01*
X1240D02*
X1254D01*
X1260D02*
X1274D01*
X1304D02*
X1312D01*
X1166Y232D02*
X1175D01*
X1176D02*
X1184D01*
X1197D02*
X1209D01*
X1217D02*
X1230D01*
X1241D02*
X1254D01*
X1260D02*
X1274D01*
X1287D02*
X1287D01*
X1304D02*
X1312D01*
X1166Y233D02*
X1175D01*
X1176D02*
X1183D01*
X1198D02*
X1209D01*
X1217D02*
X1230D01*
X1242D02*
X1253D01*
X1261D02*
X1273D01*
X1284D02*
X1289D01*
X1305D02*
X1312D01*
X1167Y234D02*
X1183D01*
X1284D02*
X1290D01*
X1305D02*
X1312D01*
X1167Y235D02*
X1183D01*
X1283D02*
X1291D01*
X1305D02*
X1312D01*
X1167Y236D02*
X1182D01*
X1283D02*
X1291D01*
X1305D02*
X1312D01*
X1159Y237D02*
X1182D01*
X1284D02*
X1291D01*
X1304D02*
X1312D01*
X1158Y238D02*
X1181D01*
X1284D02*
X1292D01*
X1303D02*
X1312D01*
X1158Y239D02*
X1181D01*
X1284D02*
X1294D01*
X1302D02*
X1312D01*
X1158Y240D02*
X1181D01*
X1285D02*
X1297D01*
X1299D02*
X1311D01*
X1158Y241D02*
X1180D01*
X1285D02*
X1310D01*
X1159Y241D02*
X1180D01*
X1286D02*
X1310D01*
X1159Y242D02*
X1180D01*
X1287D02*
X1309D01*
X1288Y243D02*
X1308D01*
X1289Y244D02*
X1307D01*
X1290Y245D02*
X1305D01*
X1294Y246D02*
X1304D01*
X1230Y1088D02*
Y1099D01*
X1231Y1102*
X1234Y1103*
X1237Y1102*
X1238Y1099*
Y1088*
X1247*
X1251Y1088*
X1252Y1085*
X1251Y1082*
X1247Y1081*
X1238*
Y1071*
X1237Y1068*
X1234Y1067*
X1231Y1068*
X1230Y1071*
Y1081*
X1221*
X1217Y1082*
X1216Y1085*
X1217Y1088*
X1221Y1088*
X1230*
X1234Y1067D02*
X1234D01*
X1231Y1068D02*
X1237D01*
X1231Y1069D02*
X1237D01*
X1231Y1070D02*
X1237D01*
X1230Y1071D02*
X1237D01*
X1230Y1072D02*
X1238D01*
X1230Y1073D02*
X1238D01*
X1230Y1074D02*
X1238D01*
X1230Y1075D02*
X1238D01*
X1230Y1076D02*
X1238D01*
X1230Y1076D02*
X1238D01*
X1230Y1077D02*
X1238D01*
X1230Y1078D02*
X1238D01*
X1230Y1079D02*
X1238D01*
X1230Y1080D02*
X1238D01*
X1230Y1081D02*
X1238D01*
X1217Y1082D02*
X1251D01*
X1217Y1083D02*
X1251D01*
X1217Y1084D02*
X1251D01*
X1216Y1085D02*
X1252D01*
X1216Y1086D02*
X1251D01*
X1217Y1087D02*
X1251D01*
X1218Y1088D02*
X1250D01*
X1230Y1089D02*
X1238D01*
X1230Y1090D02*
X1238D01*
X1230Y1091D02*
X1238D01*
X1230Y1091D02*
X1238D01*
X1230Y1092D02*
X1238D01*
X1230Y1093D02*
X1238D01*
X1230Y1094D02*
X1238D01*
X1230Y1095D02*
X1238D01*
X1230Y1096D02*
X1238D01*
X1230Y1097D02*
X1238D01*
X1230Y1098D02*
X1238D01*
X1231Y1099D02*
X1237D01*
X1231Y1100D02*
X1237D01*
X1231Y1101D02*
X1237D01*
X1231Y1102D02*
X1237D01*
X1219Y1182D02*
X1249D01*
Y1175*
X1219*
Y1182*
Y1176D02*
X1249D01*
X1219Y1177D02*
X1249D01*
X1219Y1178D02*
X1249D01*
X1219Y1179D02*
X1249D01*
X1219Y1180D02*
X1249D01*
X1219Y1180D02*
X1249D01*
X1219Y1181D02*
X1249D01*
X1250Y1286D02*
Y1261D01*
X1252*
X1254Y1260*
X1255Y1258*
X1254Y1254*
X1252Y1254*
X1250*
X1235*
X1229Y1255*
X1223Y1258*
X1220Y1262*
X1218Y1267*
X1217Y1273*
Y1276*
Y1280*
X1219Y1284*
X1223Y1288*
X1227Y1291*
X1231Y1293*
X1236*
X1250*
X1252*
X1254Y1292*
X1255Y1290*
X1254Y1287*
X1252Y1286*
X1250*
X1243D02*
X1236D01*
X1232*
X1230Y1285*
X1226Y1281*
X1224Y1276*
Y1273*
X1226Y1267*
X1227Y1264*
X1230Y1262*
X1236Y1261*
X1243*
Y1286*
X1186Y1282D02*
X1201D01*
X1203Y1286*
X1201*
X1199*
X1197Y1287*
X1197Y1290*
X1197Y1292*
X1199Y1293*
X1201*
X1211*
X1213*
X1215Y1292*
X1215Y1290*
X1215Y1287*
X1213Y1286*
X1211*
X1201Y1261*
X1206*
X1208*
X1210Y1260*
X1211Y1258*
X1210Y1254*
X1208Y1254*
X1206*
X1190*
X1176Y1286*
X1174*
X1173Y1287*
X1171Y1288*
Y1290*
X1172Y1292*
X1174Y1293*
X1176*
X1186*
X1188*
X1190Y1292*
X1190Y1290*
X1190Y1287*
X1188Y1286*
X1186*
X1184*
X1186Y1282*
X1189Y1275D02*
X1193Y1263D01*
X1199Y1275*
X1189*
X1189Y1254D02*
X1210D01*
X1232D02*
X1254D01*
X1189Y1255D02*
X1210D01*
X1228D02*
X1254D01*
X1188Y1256D02*
X1210D01*
X1226D02*
X1255D01*
X1188Y1257D02*
X1211D01*
X1224D02*
X1255D01*
X1188Y1258D02*
X1211D01*
X1223D02*
X1255D01*
X1187Y1259D02*
X1210D01*
X1222D02*
X1254D01*
X1187Y1260D02*
X1210D01*
X1221D02*
X1254D01*
X1186Y1261D02*
X1201D01*
X1221D02*
X1235D01*
X1243D02*
X1250D01*
X1186Y1262D02*
X1202D01*
X1220D02*
X1231D01*
X1243D02*
X1250D01*
X1186Y1263D02*
X1202D01*
X1220D02*
X1229D01*
X1243D02*
X1250D01*
X1185Y1264D02*
X1193D01*
X1194D02*
X1202D01*
X1219D02*
X1227D01*
X1243D02*
X1250D01*
X1185Y1265D02*
X1193D01*
X1194D02*
X1203D01*
X1219D02*
X1227D01*
X1243D02*
X1250D01*
X1185Y1266D02*
X1192D01*
X1195D02*
X1203D01*
X1218D02*
X1226D01*
X1243D02*
X1250D01*
X1184Y1267D02*
X1192D01*
X1195D02*
X1204D01*
X1218D02*
X1226D01*
X1243D02*
X1250D01*
X1184Y1268D02*
X1192D01*
X1196D02*
X1204D01*
X1218D02*
X1226D01*
X1243D02*
X1250D01*
X1183Y1269D02*
X1191D01*
X1196D02*
X1204D01*
X1218D02*
X1225D01*
X1243D02*
X1250D01*
X1183Y1269D02*
X1191D01*
X1196D02*
X1205D01*
X1218D02*
X1225D01*
X1243D02*
X1250D01*
X1183Y1270D02*
X1191D01*
X1197D02*
X1205D01*
X1217D02*
X1225D01*
X1243D02*
X1250D01*
X1182Y1271D02*
X1190D01*
X1197D02*
X1205D01*
X1217D02*
X1225D01*
X1243D02*
X1250D01*
X1182Y1272D02*
X1190D01*
X1198D02*
X1206D01*
X1217D02*
X1224D01*
X1243D02*
X1250D01*
X1181Y1273D02*
X1189D01*
X1198D02*
X1206D01*
X1217D02*
X1224D01*
X1243D02*
X1250D01*
X1181Y1274D02*
X1189D01*
X1199D02*
X1206D01*
X1217D02*
X1224D01*
X1243D02*
X1250D01*
X1181Y1275D02*
X1207D01*
X1217D02*
X1224D01*
X1243D02*
X1250D01*
X1180Y1276D02*
X1207D01*
X1217D02*
X1224D01*
X1243D02*
X1250D01*
X1180Y1277D02*
X1207D01*
X1217D02*
X1225D01*
X1243D02*
X1250D01*
X1179Y1278D02*
X1208D01*
X1217D02*
X1225D01*
X1243D02*
X1250D01*
X1179Y1279D02*
X1208D01*
X1217D02*
X1225D01*
X1243D02*
X1250D01*
X1179Y1280D02*
X1208D01*
X1217D02*
X1225D01*
X1243D02*
X1250D01*
X1178Y1281D02*
X1209D01*
X1217D02*
X1226D01*
X1243D02*
X1250D01*
X1178Y1282D02*
X1209D01*
X1218D02*
X1226D01*
X1243D02*
X1250D01*
X1178Y1283D02*
X1185D01*
X1202D02*
X1210D01*
X1218D02*
X1227D01*
X1243D02*
X1250D01*
X1177Y1284D02*
X1185D01*
X1202D02*
X1210D01*
X1219D02*
X1228D01*
X1243D02*
X1250D01*
X1177Y1284D02*
X1185D01*
X1202D02*
X1210D01*
X1219D02*
X1229D01*
X1243D02*
X1250D01*
X1176Y1285D02*
X1184D01*
X1203D02*
X1211D01*
X1220D02*
X1230D01*
X1243D02*
X1250D01*
X1173Y1286D02*
X1189D01*
X1198D02*
X1214D01*
X1221D02*
X1253D01*
X1172Y1287D02*
X1190D01*
X1197D02*
X1215D01*
X1222D02*
X1254D01*
X1172Y1288D02*
X1190D01*
X1197D02*
X1215D01*
X1222D02*
X1254D01*
X1171Y1289D02*
X1190D01*
X1197D02*
X1215D01*
X1224D02*
X1255D01*
X1171Y1290D02*
X1190D01*
X1197D02*
X1215D01*
X1225D02*
X1255D01*
X1172Y1291D02*
X1190D01*
X1197D02*
X1215D01*
X1227D02*
X1254D01*
X1172Y1292D02*
X1190D01*
X1197D02*
X1215D01*
X1229D02*
X1254D01*
X1173Y1293D02*
X1188D01*
X1199D02*
X1213D01*
X1231D02*
X1253D01*
X1224Y1351D02*
X1223Y1349D01*
X1221Y1348*
X1218Y1349*
X1217Y1353*
Y1358*
X1218Y1362*
X1220Y1362*
X1223Y1362*
X1224Y1359*
X1225Y1358*
X1229Y1355*
X1234Y1354*
X1239Y1356*
X1244Y1360*
X1245Y1363*
X1245Y1366*
Y1370*
X1245Y1375*
X1242Y1378*
X1238Y1380*
X1232Y1381*
X1226Y1380*
X1223Y1378*
X1221Y1377*
X1219*
X1217Y1377*
X1216Y1380*
Y1381*
X1218Y1383*
X1223Y1387*
X1227Y1388*
X1232Y1388*
X1238Y1388*
X1243Y1386*
X1247Y1384*
X1249Y1380*
X1252Y1376*
X1252Y1371*
Y1366*
X1252Y1362*
X1250Y1357*
X1247Y1353*
X1243Y1350*
X1239Y1348*
X1234Y1347*
X1229Y1348*
X1224Y1351*
X1196Y1355D02*
Y1380D01*
X1182*
Y1374*
X1181Y1370*
X1178Y1369*
X1175Y1370*
X1175Y1374*
Y1388*
X1207*
X1209*
X1211Y1387*
X1212Y1384*
X1211Y1381*
X1209Y1380*
X1207*
X1203*
Y1355*
X1207*
X1209*
X1211Y1354*
X1212Y1352*
X1211Y1349*
X1209Y1348*
X1207*
X1192*
X1190*
X1188Y1349*
X1187Y1352*
X1188Y1354*
X1190Y1355*
X1192*
X1196*
X1189Y1348D02*
X1209D01*
X1221D02*
X1221D01*
X1229D02*
X1239D01*
X1188Y1349D02*
X1211D01*
X1218D02*
X1223D01*
X1227D02*
X1242D01*
X1188Y1350D02*
X1211D01*
X1218D02*
X1224D01*
X1225D02*
X1243D01*
X1187Y1351D02*
X1211D01*
X1217D02*
X1245D01*
X1187Y1352D02*
X1212D01*
X1217D02*
X1246D01*
X1187Y1353D02*
X1211D01*
X1217D02*
X1247D01*
X1188Y1354D02*
X1211D01*
X1217D02*
X1248D01*
X1188Y1355D02*
X1210D01*
X1217D02*
X1232D01*
X1235D02*
X1248D01*
X1196Y1356D02*
X1203D01*
X1217D02*
X1228D01*
X1238D02*
X1249D01*
X1196Y1357D02*
X1203D01*
X1217D02*
X1227D01*
X1240D02*
X1250D01*
X1196Y1358D02*
X1203D01*
X1217D02*
X1225D01*
X1241D02*
X1250D01*
X1196Y1359D02*
X1203D01*
X1217D02*
X1225D01*
X1242D02*
X1251D01*
X1196Y1359D02*
X1203D01*
X1217D02*
X1224D01*
X1243D02*
X1251D01*
X1196Y1360D02*
X1203D01*
X1218D02*
X1223D01*
X1244D02*
X1251D01*
X1196Y1361D02*
X1203D01*
X1218D02*
X1223D01*
X1244D02*
X1252D01*
X1196Y1362D02*
X1203D01*
X1220D02*
X1220D01*
X1244D02*
X1252D01*
X1196Y1363D02*
X1203D01*
X1245D02*
X1252D01*
X1196Y1364D02*
X1203D01*
X1245D02*
X1252D01*
X1196Y1365D02*
X1203D01*
X1245D02*
X1252D01*
X1196Y1366D02*
X1203D01*
X1245D02*
X1252D01*
X1196Y1367D02*
X1203D01*
X1245D02*
X1252D01*
X1196Y1368D02*
X1203D01*
X1245D02*
X1252D01*
X1196Y1369D02*
X1203D01*
X1245D02*
X1252D01*
X1177Y1370D02*
X1179D01*
X1196D02*
X1203D01*
X1245D02*
X1252D01*
X1175Y1371D02*
X1181D01*
X1196D02*
X1203D01*
X1245D02*
X1252D01*
X1175Y1372D02*
X1181D01*
X1196D02*
X1203D01*
X1245D02*
X1252D01*
X1175Y1373D02*
X1181D01*
X1196D02*
X1203D01*
X1245D02*
X1252D01*
X1175Y1373D02*
X1182D01*
X1196D02*
X1203D01*
X1245D02*
X1252D01*
X1175Y1374D02*
X1182D01*
X1196D02*
X1203D01*
X1245D02*
X1252D01*
X1175Y1375D02*
X1182D01*
X1196D02*
X1203D01*
X1244D02*
X1252D01*
X1175Y1376D02*
X1182D01*
X1196D02*
X1203D01*
X1244D02*
X1251D01*
X1175Y1377D02*
X1182D01*
X1196D02*
X1203D01*
X1217D02*
X1222D01*
X1243D02*
X1251D01*
X1175Y1378D02*
X1182D01*
X1196D02*
X1203D01*
X1217D02*
X1223D01*
X1242D02*
X1250D01*
X1175Y1379D02*
X1182D01*
X1196D02*
X1203D01*
X1216D02*
X1224D01*
X1240D02*
X1250D01*
X1175Y1380D02*
X1182D01*
X1196D02*
X1203D01*
X1216D02*
X1225D01*
X1238D02*
X1249D01*
X1175Y1381D02*
X1210D01*
X1216D02*
X1230D01*
X1234D02*
X1249D01*
X1175Y1382D02*
X1211D01*
X1217D02*
X1248D01*
X1175Y1383D02*
X1211D01*
X1218D02*
X1247D01*
X1175Y1384D02*
X1211D01*
X1219D02*
X1247D01*
X1175Y1385D02*
X1211D01*
X1220D02*
X1245D01*
X1175Y1386D02*
X1211D01*
X1221D02*
X1244D01*
X1175Y1387D02*
X1211D01*
X1222D02*
X1241D01*
X1227Y1388D02*
X1238D01*
D02*
D11*
X155Y426D02*
X455D01*
Y526*
X155*
Y426*
Y526D02*
X455D01*
Y626*
X155*
Y526*
Y626D02*
X455D01*
Y726*
X155*
Y626*
Y726D02*
X455D01*
Y826*
X155*
Y726*
X455Y1076D02*
X55D01*
Y976*
X455*
Y1076*
Y1176D02*
X55D01*
Y1076*
X455*
Y1176*
X755Y1226D02*
Y1426D01*
X655*
Y1226*
X755*
X855Y1026D02*
Y1426D01*
X755*
Y1026*
X855*
X955D02*
Y1426D01*
X855*
Y1026*
X955*
X1055D02*
Y1426D01*
X955*
Y1026*
X1055*
X1155Y476D02*
Y876D01*
X1055*
Y476*
X1155*
Y1026D02*
Y1426D01*
X1055*
Y1026*
X1155*
X1255Y476D02*
Y876D01*
X1155*
Y476*
X1255*
X1355D02*
Y876D01*
X1255*
Y476*
X1355*
X1455Y676D02*
Y876D01*
X1355*
Y676*
X1455*
D02*
D12*
X655Y526D02*
Y576D01*
Y776D02*
Y826D01*
X705Y576D02*
X605D01*
Y776*
X705*
Y576*
X745D02*
X708D01*
Y598*
X711Y604*
X717Y607*
X724Y604*
X727Y598*
Y576*
Y598D02*
X745Y607D01*
Y632D02*
Y645D01*
Y639D02*
X708D01*
X714Y632*
X805Y526D02*
Y576D01*
Y776D02*
Y826D01*
X855Y576D02*
X755D01*
Y776*
X855*
Y576*
X895D02*
X858D01*
Y598*
X861Y604*
X867Y607*
X874Y604*
X877Y598*
Y576*
Y598D02*
X895Y607D01*
Y651D02*
Y626D01*
X874Y648*
X867Y651*
X861Y648*
X858Y642*
Y632*
X861Y626*
X1055Y1007D02*
X1052Y1014D01*
X1045Y1017*
X1033*
X1027Y1014*
X1024Y1007*
X1027Y1001*
X1033Y998*
X1045*
X1052Y995*
X1055Y989*
X1052Y982*
X1045Y979*
X1033*
X1027Y982*
X1024Y989*
X995Y1017D02*
X983D01*
X989D02*
Y979D01*
X995D02*
X983D01*
X945Y1017D02*
X933D01*
X939D02*
Y979D01*
X945D02*
X933D01*
X874Y1010D02*
X877Y1014D01*
X883Y1017*
X892*
X899Y1014*
X902Y1010*
X905Y1004*
Y992*
X902Y985*
X899Y982*
X892Y979*
X883*
X877Y982*
X874Y985*
X849Y1017D02*
X836D01*
X842D02*
Y979D01*
X849Y985*
X1295Y467D02*
X1283D01*
X1289D02*
Y429D01*
X1295D02*
X1283D01*
X1245Y467D02*
X1233D01*
X1239D02*
Y429D01*
X1245D02*
X1233D01*
X1174Y460D02*
X1177Y464D01*
X1183Y467*
X1192*
X1199Y464*
X1202Y460*
X1205Y454*
Y442*
X1202Y435*
X1199Y432*
X1192Y429*
X1183*
X1177Y432*
X1174Y435*
X1149Y467D02*
X1136D01*
X1142D02*
Y429D01*
X1149Y435*
D02*
D13*
X355Y40D02*
X1155D01*
Y400*
X355*
X0Y0D02*
M02*
