  0
SECTION
  2
HEADER
  9
$EXTMIN
 10
479.937
 20
481.937
  9
$EXTMAX
 10
520.764
 20
520.063
  9
$LIMMIN
 10
479.937
 20
481.937
  9
$LIMMAX
 10
520.764
 20
520.063
  0
ENDSEC
  0
SECTION
  2
TABLES
  0
TABLE
  2
LAYER
 70
    18
  0
LAYER
  2
0
 70
    64
 62
     7
  6
CONTINUOUS
  0
LAYER
  2
_BOARD
 70
    64
 62
    254
  6
CONTINUOUS
  0
LAYER
  2
_DRILL
 70
    64
 62
    251
  6
CONTINUOUS
  0
ENDTAB
  0
ENDSEC
  0
SECTION
  2
BLOCKS
  0
BLOCK
  8
0
  2
_HOLE
 70
    64
 10
0.000
 20
0.000
  0
CIRCLE
  8
0
 10
0.000
 20
0.000
 40
0.500
  0
ENDBLK
  8
0
  0
ENDSEC
  0
SECTION
  2
ENTITIES
  0
POLYLINE
  8
_BOARD
 66
     1
 62
     3
 10
0.000
 20
0.000
 70
     1
 40
0.000
 41
0.000
  0
VERTEX
  8
_BOARD
 10
480.000
 20
482.000
 40
0.000
 41
0.000
  0
VERTEX
  8
_BOARD
 10
518.000
 20
482.000
  0
VERTEX
  8
_BOARD
 10
518.000
 20
482.000
 40
0.000
 41
0.000
  0
VERTEX
  8
_BOARD
 10
518.000
 20
520.000
  0
VERTEX
  8
_BOARD
 10
518.000
 20
520.000
 40
0.000
 41
0.000
  0
VERTEX
  8
_BOARD
 10
480.000
 20
520.000
  0
VERTEX
  8
_BOARD
 10
480.000
 20
520.000
 40
0.000
 41
0.000
  0
VERTEX
  8
_BOARD
 10
480.000
 20
482.000
 40
0.000
 41
0.000
  0
VERTEX
  8
_BOARD
 10
480.000
 20
482.000
  0
SEQEND
  8
_BOARD
  0
INSERT
  8
_DRILL
  2
_HOLE
 10
509.270
 20
490.855
 41
0.610
 42
0.610
  0
INSERT
  8
_DRILL
  2
_HOLE
 10
509.270
 20
488.950
 41
0.610
 42
0.610
  0
INSERT
  8
_DRILL
  2
_HOLE
 10
502.920
 20
506.730
 41
0.610
 42
0.610
  0
INSERT
  8
_DRILL
  2
_HOLE
 10
483.870
 20
490.220
 41
0.610
 42
0.610
  0
INSERT
  8
_DRILL
  2
_HOLE
 10
497.840
 20
490.220
 41
0.610
 42
0.610
  0
INSERT
  8
_DRILL
  2
_HOLE
 10
496.570
 20
491.490
 41
0.610
 42
0.610
  0
INSERT
  8
_DRILL
  2
_HOLE
 10
492.125
 20
491.490
 41
0.610
 42
0.610
  0
INSERT
  8
_DRILL
  2
_HOLE
 10
487.680
 20
486.410
 41
0.813
 42
0.813
  0
INSERT
  8
_DRILL
  2
_HOLE
 10
487.680
 20
504.190
 41
0.813
 42
0.813
  0
INSERT
  8
_DRILL
  2
_HOLE
 10
485.775
 20
487.680
 41
0.610
 42
0.610
  0
INSERT
  8
_DRILL
  2
_HOLE
 10
499.110
 20
497.840
 41
0.610
 42
0.610
  0
INSERT
  8
_DRILL
  2
_HOLE
 10
495.300
 20
513.715
 41
0.610
 42
0.610
  0
INSERT
  8
_DRILL
  2
_HOLE
 10
485.140
 20
513.715
 41
0.610
 42
0.610
  0
INSERT
  8
_DRILL
  2
_HOLE
 10
505.460
 20
497.840
 41
0.813
 42
0.813
  0
INSERT
  8
_DRILL
  2
_HOLE
 10
505.460
 20
507.365
 41
0.813
 42
0.813
  0
INSERT
  8
_DRILL
  2
_HOLE
 10
509.905
 20
507.365
 41
0.813
 42
0.813
  0
INSERT
  8
_DRILL
  2
_HOLE
 10
509.905
 20
511.810
 41
0.813
 42
0.813
  0
INSERT
  8
_DRILL
  2
_HOLE
 10
490.220
 20
488.950
 41
0.813
 42
0.813
  0
INSERT
  8
_DRILL
  2
_HOLE
 10
497.840
 20
516.890
 41
0.889
 42
0.889
  0
INSERT
  8
_DRILL
  2
_HOLE
 10
497.840
 20
514.350
 41
0.889
 42
0.889
  0
INSERT
  8
_DRILL
  2
_HOLE
 10
482.600
 20
510.540
 41
0.889
 42
0.889
  0
INSERT
  8
_DRILL
  2
_HOLE
 10
485.140
 20
510.540
 41
0.889
 42
0.889
  0
INSERT
  8
_DRILL
  2
_HOLE
 10
487.680
 20
510.540
 41
0.889
 42
0.889
  0
INSERT
  8
_DRILL
  2
_HOLE
 10
490.220
 20
510.540
 41
0.889
 42
0.889
  0
INSERT
  8
_DRILL
  2
_HOLE
 10
513.080
 20
502.920
 41
0.889
 42
0.889
  0
INSERT
  8
_DRILL
  2
_HOLE
 10
513.080
 20
500.380
 41
0.889
 42
0.889
  0
INSERT
  8
_DRILL
  2
_HOLE
 10
513.080
 20
497.840
 41
0.889
 42
0.889
  0
INSERT
  8
_DRILL
  2
_HOLE
 10
513.080
 20
495.300
 41
0.889
 42
0.889
  0
INSERT
  8
_DRILL
  2
_HOLE
 10
508.000
 20
502.920
 41
0.889
 42
0.889
  0
INSERT
  8
_DRILL
  2
_HOLE
 10
508.000
 20
500.380
 41
0.889
 42
0.889
  0
INSERT
  8
_DRILL
  2
_HOLE
 10
508.000
 20
497.840
 41
0.889
 42
0.889
  0
INSERT
  8
_DRILL
  2
_HOLE
 10
508.000
 20
495.300
 41
0.889
 42
0.889
  0
INSERT
  8
_DRILL
  2
_HOLE
 10
510.540
 20
502.920
 41
0.889
 42
0.889
  0
INSERT
  8
_DRILL
  2
_HOLE
 10
510.540
 20
500.380
 41
0.889
 42
0.889
  0
INSERT
  8
_DRILL
  2
_HOLE
 10
510.540
 20
497.840
 41
0.889
 42
0.889
  0
INSERT
  8
_DRILL
  2
_HOLE
 10
510.540
 20
495.300
 41
0.889
 42
0.889
  0
INSERT
  8
_DRILL
  2
_HOLE
 10
515.620
 20
502.920
 41
0.889
 42
0.889
  0
INSERT
  8
_DRILL
  2
_HOLE
 10
515.620
 20
500.380
 41
0.889
 42
0.889
  0
INSERT
  8
_DRILL
  2
_HOLE
 10
500.380
 20
516.890
 41
0.889
 42
0.889
  0
INSERT
  8
_DRILL
  2
_HOLE
 10
500.380
 20
514.350
 41
0.889
 42
0.889
  0
INSERT
  8
_DRILL
  2
_HOLE
 10
500.380
 20
511.810
 41
0.889
 42
0.889
  0
INSERT
  8
_DRILL
  2
_HOLE
 10
500.380
 20
509.270
 41
0.889
 42
0.889
  0
INSERT
  8
_DRILL
  2
_HOLE
 10
490.220
 20
496.570
 41
0.889
 42
0.889
  0
INSERT
  8
_DRILL
  2
_HOLE
 10
487.680
 20
496.570
 41
0.889
 42
0.889
  0
INSERT
  8
_DRILL
  2
_HOLE
 10
485.140
 20
496.570
 41
0.889
 42
0.889
  0
INSERT
  8
_DRILL
  2
_HOLE
 10
482.600
 20
508.000
 41
0.889
 42
0.889
  0
INSERT
  8
_DRILL
  2
_HOLE
 10
485.140
 20
508.000
 41
0.889
 42
0.889
  0
INSERT
  8
_DRILL
  2
_HOLE
 10
487.680
 20
508.000
 41
0.889
 42
0.889
  0
INSERT
  8
_DRILL
  2
_HOLE
 10
490.220
 20
508.000
 41
0.889
 42
0.889
  0
INSERT
  8
_DRILL
  2
_HOLE
 10
502.920
 20
516.890
 41
0.889
 42
0.889
  0
INSERT
  8
_DRILL
  2
_HOLE
 10
502.920
 20
514.350
 41
0.889
 42
0.889
  0
INSERT
  8
_DRILL
  2
_HOLE
 10
502.920
 20
511.810
 41
0.889
 42
0.889
  0
INSERT
  8
_DRILL
  2
_HOLE
 10
502.920
 20
509.270
 41
0.889
 42
0.889
  0
INSERT
  8
_DRILL
  2
_HOLE
 10
504.190
 20
486.260
 41
0.965
 42
0.965
  0
INSERT
  8
_DRILL
  2
_HOLE
 10
504.190
 20
488.800
 41
0.965
 42
0.965
  0
INSERT
  8
_DRILL
  2
_HOLE
 10
501.650
 20
486.260
 41
0.965
 42
0.965
  0
INSERT
  8
_DRILL
  2
_HOLE
 10
501.650
 20
488.800
 41
0.965
 42
0.965
  0
INSERT
  8
_DRILL
  2
_HOLE
 10
499.110
 20
486.260
 41
0.965
 42
0.965
  0
INSERT
  8
_DRILL
  2
_HOLE
 10
499.110
 20
488.800
 41
0.965
 42
0.965
  0
INSERT
  8
_DRILL
  2
_HOLE
 10
496.570
 20
486.260
 41
0.965
 42
0.965
  0
INSERT
  8
_DRILL
  2
_HOLE
 10
496.570
 20
488.800
 41
0.965
 42
0.965
  0
INSERT
  8
_DRILL
  2
_HOLE
 10
494.030
 20
486.260
 41
0.965
 42
0.965
  0
INSERT
  8
_DRILL
  2
_HOLE
 10
494.030
 20
488.800
 41
0.965
 42
0.965
  0
INSERT
  8
_DRILL
  2
_HOLE
 10
505.460
 20
516.890
 41
0.889
 42
0.889
  0
INSERT
  8
_DRILL
  2
_HOLE
 10
505.460
 20
514.350
 41
0.889
 42
0.889
  0
INSERT
  8
_DRILL
  2
_HOLE
 10
505.460
 20
511.810
 41
0.889
 42
0.889
  0
INSERT
  8
_DRILL
  2
_HOLE
 10
505.460
 20
509.270
 41
0.889
 42
0.889
  0
INSERT
  8
_DRILL
  2
_HOLE
 10
500.380
 20
504.190
 41
0.813
 42
0.813
  0
INSERT
  8
_DRILL
  2
_HOLE
 10
500.380
 20
494.030
 41
0.813
 42
0.813
  0
INSERT
  8
_DRILL
  2
_HOLE
 10
496.570
 20
504.190
 41
0.813
 42
0.813
  0
INSERT
  8
_DRILL
  2
_HOLE
 10
496.570
 20
494.030
 41
0.813
 42
0.813
  0
INSERT
  8
_DRILL
  2
_HOLE
 10
508.000
 20
516.890
 41
0.889
 42
0.889
  0
INSERT
  8
_DRILL
  2
_HOLE
 10
508.000
 20
514.350
 41
0.889
 42
0.889
  0
INSERT
  8
_DRILL
  2
_HOLE
 10
508.000
 20
511.810
 41
0.889
 42
0.889
  0
INSERT
  8
_DRILL
  2
_HOLE
 10
508.000
 20
509.270
 41
0.889
 42
0.889
  0
INSERT
  8
_DRILL
  2
_HOLE
 10
490.220
 20
494.030
 41
0.889
 42
0.889
  0
INSERT
  8
_DRILL
  2
_HOLE
 10
487.680
 20
494.030
 41
0.889
 42
0.889
  0
INSERT
  8
_DRILL
  2
_HOLE
 10
485.140
 20
494.030
 41
0.889
 42
0.889
  0
INSERT
  8
_DRILL
  2
_HOLE
 10
490.220
 20
499.110
 41
0.889
 42
0.889
  0
INSERT
  8
_DRILL
  2
_HOLE
 10
487.680
 20
499.110
 41
0.889
 42
0.889
  0
INSERT
  8
_DRILL
  2
_HOLE
 10
485.140
 20
499.110
 41
0.889
 42
0.889
  0
INSERT
  8
_DRILL
  2
_HOLE
 10
490.220
 20
501.650
 41
0.889
 42
0.889
  0
INSERT
  8
_DRILL
  2
_HOLE
 10
487.680
 20
501.650
 41
0.889
 42
0.889
  0
INSERT
  8
_DRILL
  2
_HOLE
 10
485.140
 20
501.650
 41
0.889
 42
0.889
  0
INSERT
  8
_DRILL
  2
_HOLE
 10
483.000
 20
485.000
 41
3.000
 42
3.000
  0
INSERT
  8
_DRILL
  2
_HOLE
 10
515.000
 20
485.000
 41
3.000
 42
3.000
  0
INSERT
  8
_DRILL
  2
_HOLE
 10
515.000
 20
517.000
 41
3.000
 42
3.000
  0
INSERT
  8
_DRILL
  2
_HOLE
 10
483.000
 20
517.000
 41
3.000
 42
3.000
  0
ENDSEC
  0
EOF
