  0
SECTION
  2
HEADER
  9
$EXTMIN
 10
478.457
 20
481.937
  9
$EXTMAX
 10
518.063
 20
520.063
  9
$LIMMIN
 10
478.457
 20
481.937
  9
$LIMMAX
 10
518.063
 20
520.063
  0
ENDSEC
  0
SECTION
  2
TABLES
  0
TABLE
  2
LAYER
 70
    18
  0
LAYER
  2
0
 70
    64
 62
     7
  6
CONTINUOUS
  0
LAYER
  2
_BOARD
 70
    64
 62
    254
  6
CONTINUOUS
  0
LAYER
  2
_DRILL
 70
    64
 62
    251
  6
CONTINUOUS
  0
ENDTAB
  0
ENDSEC
  0
SECTION
  2
BLOCKS
  0
BLOCK
  8
0
  2
_HOLE
 70
    64
 10
0.000
 20
0.000
  0
CIRCLE
  8
0
 10
0.000
 20
0.000
 40
0.500
  0
ENDBLK
  8
0
  0
ENDSEC
  0
SECTION
  2
ENTITIES
  0
POLYLINE
  8
_BOARD
 66
     1
 62
     3
 10
0.000
 20
0.000
 70
     1
 40
0.000
 41
0.000
  0
VERTEX
  8
_BOARD
 10
480.000
 20
482.000
 40
0.000
 41
0.000
  0
VERTEX
  8
_BOARD
 10
518.000
 20
482.000
  0
VERTEX
  8
_BOARD
 10
518.000
 20
482.000
 40
0.000
 41
0.000
  0
VERTEX
  8
_BOARD
 10
518.000
 20
520.000
  0
VERTEX
  8
_BOARD
 10
518.000
 20
520.000
 40
0.000
 41
0.000
  0
VERTEX
  8
_BOARD
 10
480.000
 20
520.000
  0
VERTEX
  8
_BOARD
 10
480.000
 20
520.000
 40
0.000
 41
0.000
  0
VERTEX
  8
_BOARD
 10
480.000
 20
482.000
 40
0.000
 41
0.000
  0
VERTEX
  8
_BOARD
 10
480.000
 20
482.000
  0
SEQEND
  8
_BOARD
  0
INSERT
  8
_DRILL
  2
_HOLE
 10
503.555
 20
509.270
 41
0.610
 42
0.610
  0
INSERT
  8
_DRILL
  2
_HOLE
 10
494.030
 20
495.300
 41
0.610
 42
0.610
  0
INSERT
  8
_DRILL
  2
_HOLE
 10
509.905
 20
495.300
 41
0.610
 42
0.610
  0
INSERT
  8
_DRILL
  2
_HOLE
 10
498.475
 20
497.840
 41
0.610
 42
0.610
  0
INSERT
  8
_DRILL
  2
_HOLE
 10
490.220
 20
490.855
 41
0.610
 42
0.610
  0
INSERT
  8
_DRILL
  2
_HOLE
 10
501.650
 20
501.650
 41
0.813
 42
0.813
  0
INSERT
  8
_DRILL
  2
_HOLE
 10
501.650
 20
512.445
 41
0.813
 42
0.813
  0
INSERT
  8
_DRILL
  2
_HOLE
 10
492.125
 20
486.410
 41
0.813
 42
0.813
  0
INSERT
  8
_DRILL
  2
_HOLE
 10
494.030
 20
499.745
 41
0.813
 42
0.813
  0
INSERT
  8
_DRILL
  2
_HOLE
 10
506.730
 20
486.410
 41
0.610
 42
0.610
  0
INSERT
  8
_DRILL
  2
_HOLE
 10
506.730
 20
505.460
 41
0.610
 42
0.610
  0
INSERT
  8
_DRILL
  2
_HOLE
 10
497.840
 20
505.460
 41
0.610
 42
0.610
  0
INSERT
  8
_DRILL
  2
_HOLE
 10
500.380
 20
494.030
 41
0.610
 42
0.610
  0
INSERT
  8
_DRILL
  2
_HOLE
 10
488.950
 20
494.030
 41
0.610
 42
0.610
  0
INSERT
  8
_DRILL
  2
_HOLE
 10
496.570
 20
501.800
 41
0.610
 42
0.610
  0
INSERT
  8
_DRILL
  2
_HOLE
 10
491.490
 20
501.650
 41
0.610
 42
0.610
  0
INSERT
  8
_DRILL
  2
_HOLE
 10
491.490
 20
507.365
 41
0.610
 42
0.610
  0
INSERT
  8
_DRILL
  2
_HOLE
 10
508.000
 20
514.350
 41
0.813
 42
0.813
  0
INSERT
  8
_DRILL
  2
_HOLE
 10
507.365
 20
509.905
 41
0.813
 42
0.813
  0
INSERT
  8
_DRILL
  2
_HOLE
 10
485.775
 20
515.620
 41
0.813
 42
0.813
  0
INSERT
  8
_DRILL
  2
_HOLE
 10
485.775
 20
488.950
 41
0.813
 42
0.813
  0
INSERT
  8
_DRILL
  2
_HOLE
 10
495.300
 20
515.620
 41
0.889
 42
0.889
  0
INSERT
  8
_DRILL
  2
_HOLE
 10
495.300
 20
513.080
 41
0.889
 42
0.889
  0
INSERT
  8
_DRILL
  2
_HOLE
 10
495.300
 20
510.540
 41
0.889
 42
0.889
  0
INSERT
  8
_DRILL
  2
_HOLE
 10
483.600
 20
499.380
 41
0.889
 42
0.889
  0
INSERT
  8
_DRILL
  2
_HOLE
 10
483.600
 20
501.920
 41
0.889
 42
0.889
  0
INSERT
  8
_DRILL
  2
_HOLE
 10
483.600
 20
504.460
 41
0.889
 42
0.889
  0
INSERT
  8
_DRILL
  2
_HOLE
 10
483.600
 20
507.000
 41
0.889
 42
0.889
  0
INSERT
  8
_DRILL
  2
_HOLE
 10
514.800
 20
504.580
 41
0.889
 42
0.889
  0
INSERT
  8
_DRILL
  2
_HOLE
 10
514.800
 20
507.120
 41
0.889
 42
0.889
  0
INSERT
  8
_DRILL
  2
_HOLE
 10
514.800
 20
509.660
 41
0.889
 42
0.889
  0
INSERT
  8
_DRILL
  2
_HOLE
 10
514.800
 20
512.200
 41
0.889
 42
0.889
  0
INSERT
  8
_DRILL
  2
_HOLE
 10
504.160
 20
486.260
 41
0.965
 42
0.965
  0
INSERT
  8
_DRILL
  2
_HOLE
 10
504.160
 20
488.800
 41
0.965
 42
0.965
  0
INSERT
  8
_DRILL
  2
_HOLE
 10
501.620
 20
486.260
 41
0.965
 42
0.965
  0
INSERT
  8
_DRILL
  2
_HOLE
 10
501.620
 20
488.800
 41
0.965
 42
0.965
  0
INSERT
  8
_DRILL
  2
_HOLE
 10
499.080
 20
486.260
 41
0.965
 42
0.965
  0
INSERT
  8
_DRILL
  2
_HOLE
 10
499.080
 20
488.800
 41
0.965
 42
0.965
  0
INSERT
  8
_DRILL
  2
_HOLE
 10
496.540
 20
486.260
 41
0.965
 42
0.965
  0
INSERT
  8
_DRILL
  2
_HOLE
 10
496.540
 20
488.800
 41
0.965
 42
0.965
  0
INSERT
  8
_DRILL
  2
_HOLE
 10
494.000
 20
486.260
 41
0.965
 42
0.965
  0
INSERT
  8
_DRILL
  2
_HOLE
 10
494.000
 20
488.800
 41
0.965
 42
0.965
  0
INSERT
  8
_DRILL
  2
_HOLE
 10
512.200
 20
504.580
 41
0.889
 42
0.889
  0
INSERT
  8
_DRILL
  2
_HOLE
 10
512.200
 20
507.120
 41
0.889
 42
0.889
  0
INSERT
  8
_DRILL
  2
_HOLE
 10
512.200
 20
509.660
 41
0.889
 42
0.889
  0
INSERT
  8
_DRILL
  2
_HOLE
 10
512.200
 20
512.200
 41
0.889
 42
0.889
  0
INSERT
  8
_DRILL
  2
_HOLE
 10
504.160
 20
497.900
 41
0.813
 42
0.813
  0
INSERT
  8
_DRILL
  2
_HOLE
 10
494.000
 20
497.900
 41
0.813
 42
0.813
  0
INSERT
  8
_DRILL
  2
_HOLE
 10
504.160
 20
501.800
 41
0.813
 42
0.813
  0
INSERT
  8
_DRILL
  2
_HOLE
 10
494.000
 20
501.800
 41
0.813
 42
0.813
  0
INSERT
  8
_DRILL
  2
_HOLE
 10
509.600
 20
504.580
 41
0.889
 42
0.889
  0
INSERT
  8
_DRILL
  2
_HOLE
 10
509.600
 20
507.120
 41
0.889
 42
0.889
  0
INSERT
  8
_DRILL
  2
_HOLE
 10
509.600
 20
509.660
 41
0.889
 42
0.889
  0
INSERT
  8
_DRILL
  2
_HOLE
 10
509.600
 20
512.200
 41
0.889
 42
0.889
  0
INSERT
  8
_DRILL
  2
_HOLE
 10
497.840
 20
515.620
 41
0.889
 42
0.889
  0
INSERT
  8
_DRILL
  2
_HOLE
 10
497.840
 20
513.080
 41
0.889
 42
0.889
  0
INSERT
  8
_DRILL
  2
_HOLE
 10
497.840
 20
510.540
 41
0.889
 42
0.889
  0
INSERT
  8
_DRILL
  2
_HOLE
 10
492.760
 20
515.620
 41
0.889
 42
0.889
  0
INSERT
  8
_DRILL
  2
_HOLE
 10
492.760
 20
513.080
 41
0.889
 42
0.889
  0
INSERT
  8
_DRILL
  2
_HOLE
 10
492.760
 20
510.540
 41
0.889
 42
0.889
  0
INSERT
  8
_DRILL
  2
_HOLE
 10
490.220
 20
515.620
 41
0.889
 42
0.889
  0
INSERT
  8
_DRILL
  2
_HOLE
 10
490.220
 20
513.080
 41
0.889
 42
0.889
  0
INSERT
  8
_DRILL
  2
_HOLE
 10
490.220
 20
510.540
 41
0.889
 42
0.889
  0
INSERT
  8
_DRILL
  2
_HOLE
 10
483.000
 20
485.000
 41
3.000
 42
3.000
  0
INSERT
  8
_DRILL
  2
_HOLE
 10
515.000
 20
485.000
 41
3.000
 42
3.000
  0
INSERT
  8
_DRILL
  2
_HOLE
 10
515.000
 20
517.000
 41
3.000
 42
3.000
  0
INSERT
  8
_DRILL
  2
_HOLE
 10
483.000
 20
517.000
 41
3.000
 42
3.000
  0
ENDSEC
  0
EOF
